<svg width="253" height="109" viewBox="0 0 253 109" fill="none" xmlns="http://www.w3.org/2000/svg">
<rect width="253" height="109" fill="white"/>
<path d="M26 43.9211L35.7895 38H212V59.0526L203.189 63H26V43.9211Z" fill="#0D384B"/>
<mask id="path-2-outside-1_226_8" maskUnits="userSpaceOnUse" x="33" y="45" width="176" height="12" fill="black">
<rect fill="white" x="33" y="45" width="176" height="12"/>
<path d="M35.9277 46H42.127C43.4082 46.2969 44.0488 46.9375 44.0488 47.9219V53.957C44.0488 55.1562 43.2129 55.8262 41.541 55.9668H36.5137C34.8379 55.8262 34 55.1562 34 53.957V47.9219C34.3008 46.6406 34.9434 46 35.9277 46ZM34.5039 47.5879V53.6172C34.5039 54.3906 34.9785 54.8379 35.9277 54.959H41.7871C42.7363 54.8027 43.2109 54.3281 43.2109 53.5352V47.8398C43.0781 46.8359 42.5762 46.334 41.7051 46.334H36.0098C35.0059 46.5137 34.5039 46.9316 34.5039 47.5879ZM43.4629 47.5059V53.5352C43.2754 54.6523 42.7168 55.2109 41.7871 55.2109H35.8398C35.5195 55.2109 35.2129 55.0996 34.9199 54.877H34.8379C34.8379 55.123 35.2852 55.3457 36.1797 55.5449H41.7871C43.0176 55.4121 43.6328 54.9375 43.6328 54.1211V47.9219L43.5508 47.5059H43.4629ZM35.3242 51.0332V47.2773H35.8398L37.6211 50.0605C37.7109 50.1973 37.7793 50.3262 37.8262 50.4473L37.8848 50.582L37.8496 50.2773L37.832 50.0078V47.2773H38.2832V51.0332H37.7559L35.8164 47.9805L35.6934 47.7051L35.7754 48.2383V51.0332H35.3242Z"/>
<path d="M47.1543 46H53.3535C54.6348 46.2969 55.2754 46.9375 55.2754 47.9219V53.957C55.2754 55.1562 54.4395 55.8262 52.7676 55.9668H47.7402C46.0645 55.8262 45.2266 55.1562 45.2266 53.957V47.9219C45.5273 46.6406 46.1699 46 47.1543 46ZM45.7305 47.5879V53.6172C45.7305 54.3906 46.2051 54.8379 47.1543 54.959H53.0137C53.9629 54.8027 54.4375 54.3281 54.4375 53.5352V47.8398C54.3047 46.8359 53.8027 46.334 52.9316 46.334H47.2363C46.2324 46.5137 45.7305 46.9316 45.7305 47.5879ZM54.6895 47.5059V53.5352C54.502 54.6523 53.9434 55.2109 53.0137 55.2109H47.0664C46.7461 55.2109 46.4395 55.0996 46.1465 54.877H46.0645C46.0645 55.123 46.5117 55.3457 47.4062 55.5449H53.0137C54.2441 55.4121 54.8594 54.9375 54.8594 54.1211V47.9219L54.7773 47.5059H54.6895ZM46.5273 49.0879C46.5273 48.5098 46.6738 48.043 46.9668 47.6875C47.2832 47.2969 47.7246 47.1016 48.291 47.1016C48.4238 47.1016 48.543 47.1094 48.6484 47.125C49.1211 47.2031 49.4844 47.4336 49.7383 47.8164C49.9648 48.1602 50.0781 48.584 50.0781 49.0879C50.0781 49.6777 49.9297 50.1504 49.6328 50.5059C49.3164 50.8848 48.8672 51.0742 48.2852 51.0742C47.7305 51.0742 47.293 50.8789 46.9727 50.4883C46.6758 50.125 46.5273 49.6582 46.5273 49.0879ZM47.0137 49.0879C47.0137 49.1895 47.0215 49.3047 47.0371 49.4336C47.0918 49.8086 47.2168 50.1074 47.4121 50.3301C47.6309 50.5762 47.9199 50.6992 48.2793 50.6992C48.3613 50.6992 48.4531 50.6914 48.5547 50.6758C49.1289 50.5781 49.4668 50.1641 49.5684 49.4336C49.5879 49.3047 49.5977 49.1895 49.5977 49.0879C49.5977 48.9902 49.5879 48.877 49.5684 48.748C49.4707 48.0176 49.1328 47.6016 48.5547 47.5C48.457 47.4844 48.3652 47.4766 48.2793 47.4766C47.9238 47.4766 47.6348 47.6016 47.4121 47.8516C47.2129 48.0742 47.0879 48.373 47.0371 48.748C47.0215 48.8809 47.0137 48.9941 47.0137 49.0879Z"/>
<path d="M58.3809 46H64.5801C65.8613 46.2969 66.502 46.9375 66.502 47.9219V53.957C66.502 55.1562 65.666 55.8262 63.9941 55.9668H58.9668C57.291 55.8262 56.4531 55.1562 56.4531 53.957V47.9219C56.7539 46.6406 57.3965 46 58.3809 46ZM56.957 47.5879V53.6172C56.957 54.3906 57.4316 54.8379 58.3809 54.959H64.2402C65.1895 54.8027 65.6641 54.3281 65.6641 53.5352V47.8398C65.5312 46.8359 65.0293 46.334 64.1582 46.334H58.4629C57.459 46.5137 56.957 46.9316 56.957 47.5879ZM65.916 47.5059V53.5352C65.7285 54.6523 65.1699 55.2109 64.2402 55.2109H58.293C57.9727 55.2109 57.666 55.0996 57.373 54.877H57.291C57.291 55.123 57.7383 55.3457 58.6328 55.5449H64.2402C65.4707 55.4121 66.0859 54.9375 66.0859 54.1211V47.9219L66.0039 47.5059H65.916ZM57.7305 47.6934V47.2891H60.7363V47.6934H59.4648V51.0859H59.0078V47.6934H57.7305Z"/>
<path d="M69.9277 46H126.752C128.033 46.2969 128.674 46.9375 128.674 47.9219V53.957C128.674 55.1562 127.838 55.8262 126.166 55.9668H70.5137C68.8379 55.8262 68 55.1562 68 53.957V47.9219C68.3008 46.6406 68.9434 46 69.9277 46ZM68.5039 47.5879V53.6172C68.5039 54.3906 68.9785 54.8379 69.9277 54.959H126.412C127.361 54.8027 127.836 54.3281 127.836 53.5352V47.8398C127.703 46.8359 127.201 46.334 126.33 46.334H70.0098C69.0059 46.5137 68.5039 46.9316 68.5039 47.5879ZM128.088 47.5059V53.5352C127.9 54.6523 127.342 55.2109 126.412 55.2109H69.8398C69.5195 55.2109 69.2129 55.0996 68.9199 54.877H68.8379C68.8379 55.123 69.2852 55.3457 70.1797 55.5449H126.412C127.643 55.4121 128.258 54.9375 128.258 54.1211V47.9219L128.176 47.5059H128.088Z"/>
<path d="M131.779 46H137.979C139.26 46.2969 139.9 46.9375 139.9 47.9219V53.957C139.9 55.1562 139.064 55.8262 137.393 55.9668H132.365C130.689 55.8262 129.852 55.1562 129.852 53.957V47.9219C130.152 46.6406 130.795 46 131.779 46ZM130.355 47.5879V53.6172C130.355 54.3906 130.83 54.8379 131.779 54.959H137.639C138.588 54.8027 139.062 54.3281 139.062 53.5352V47.8398C138.93 46.8359 138.428 46.334 137.557 46.334H131.861C130.857 46.5137 130.355 46.9316 130.355 47.5879ZM139.314 47.5059V53.5352C139.127 54.6523 138.568 55.2109 137.639 55.2109H131.691C131.371 55.2109 131.064 55.0996 130.771 54.877H130.689C130.689 55.123 131.137 55.3457 132.031 55.5449H137.639C138.869 55.4121 139.484 54.9375 139.484 54.1211V47.9219L139.402 47.5059H139.314ZM131.152 49.0879C131.152 48.5098 131.299 48.043 131.592 47.6875C131.908 47.2969 132.35 47.1016 132.916 47.1016C133.049 47.1016 133.168 47.1094 133.273 47.125C133.746 47.2031 134.109 47.4336 134.363 47.8164C134.59 48.1602 134.703 48.584 134.703 49.0879C134.703 49.6777 134.555 50.1504 134.258 50.5059C133.941 50.8848 133.492 51.0742 132.91 51.0742C132.355 51.0742 131.918 50.8789 131.598 50.4883C131.301 50.125 131.152 49.6582 131.152 49.0879ZM131.639 49.0879C131.639 49.1895 131.646 49.3047 131.662 49.4336C131.717 49.8086 131.842 50.1074 132.037 50.3301C132.256 50.5762 132.545 50.6992 132.904 50.6992C132.986 50.6992 133.078 50.6914 133.18 50.6758C133.754 50.5781 134.092 50.1641 134.193 49.4336C134.213 49.3047 134.223 49.1895 134.223 49.0879C134.223 48.9902 134.213 48.877 134.193 48.748C134.096 48.0176 133.758 47.6016 133.18 47.5C133.082 47.4844 132.99 47.4766 132.904 47.4766C132.549 47.4766 132.26 47.6016 132.037 47.8516C131.838 48.0742 131.713 48.373 131.662 48.748C131.646 48.8809 131.639 48.9941 131.639 49.0879Z"/>
<path d="M143.006 46H149.205C150.486 46.2969 151.127 46.9375 151.127 47.9219V53.957C151.127 55.1562 150.291 55.8262 148.619 55.9668H143.592C141.916 55.8262 141.078 55.1562 141.078 53.957V47.9219C141.379 46.6406 142.021 46 143.006 46ZM141.582 47.5879V53.6172C141.582 54.3906 142.057 54.8379 143.006 54.959H148.865C149.814 54.8027 150.289 54.3281 150.289 53.5352V47.8398C150.156 46.8359 149.654 46.334 148.783 46.334H143.088C142.084 46.5137 141.582 46.9316 141.582 47.5879ZM150.541 47.5059V53.5352C150.354 54.6523 149.795 55.2109 148.865 55.2109H142.918C142.598 55.2109 142.291 55.0996 141.998 54.877H141.916C141.916 55.123 142.363 55.3457 143.258 55.5449H148.865C150.096 55.4121 150.711 54.9375 150.711 54.1211V47.9219L150.629 47.5059H150.541ZM142.355 51.127V47.3301H144.84V47.7285H142.807V48.9941H144.547V49.375H142.807V51.127H142.355Z"/>
<path d="M154.232 46H160.432C161.713 46.2969 162.354 46.9375 162.354 47.9219V53.957C162.354 55.1562 161.518 55.8262 159.846 55.9668H154.818C153.143 55.8262 152.305 55.1562 152.305 53.957V47.9219C152.605 46.6406 153.248 46 154.232 46ZM152.809 47.5879V53.6172C152.809 54.3906 153.283 54.8379 154.232 54.959H160.092C161.041 54.8027 161.516 54.3281 161.516 53.5352V47.8398C161.383 46.8359 160.881 46.334 160.01 46.334H154.314C153.311 46.5137 152.809 46.9316 152.809 47.5879ZM161.768 47.5059V53.5352C161.58 54.6523 161.021 55.2109 160.092 55.2109H154.145C153.824 55.2109 153.518 55.0996 153.225 54.877H153.143C153.143 55.123 153.59 55.3457 154.484 55.5449H160.092C161.322 55.4121 161.938 54.9375 161.938 54.1211V47.9219L161.855 47.5059H161.768ZM153.582 47.6934V47.2891H156.588V47.6934H155.316V51.0859H154.859V47.6934H153.582Z"/>
<path d="M165.459 46H171.658C172.939 46.2969 173.58 46.9375 173.58 47.9219V53.957C173.58 55.1562 172.744 55.8262 171.072 55.9668H166.045C164.369 55.8262 163.531 55.1562 163.531 53.957V47.9219C163.832 46.6406 164.475 46 165.459 46ZM164.035 47.5879V53.6172C164.035 54.3906 164.51 54.8379 165.459 54.959H171.318C172.268 54.8027 172.742 54.3281 172.742 53.5352V47.8398C172.609 46.8359 172.107 46.334 171.236 46.334H165.541C164.537 46.5137 164.035 46.9316 164.035 47.5879ZM172.994 47.5059V53.5352C172.807 54.6523 172.248 55.2109 171.318 55.2109H165.371C165.051 55.2109 164.744 55.0996 164.451 54.877H164.369C164.369 55.123 164.816 55.3457 165.711 55.5449H171.318C172.549 55.4121 173.164 54.9375 173.164 54.1211V47.9219L173.082 47.5059H172.994ZM164.809 47.2949H165.289L166.062 50.5879L166.074 50.4766L166.104 50.3242L166.139 50.1426L166.871 47.2949H167.398L168.207 50.5879L168.283 50.1543L168.98 47.2949H169.461L168.453 51.0918H167.943L167.135 47.7168L167.1 47.998L167.059 48.2031L166.326 51.0918H165.811L164.809 47.2949Z"/>
<path d="M176.686 46H182.885C184.166 46.2969 184.807 46.9375 184.807 47.9219V53.957C184.807 55.1562 183.971 55.8262 182.299 55.9668H177.271C175.596 55.8262 174.758 55.1562 174.758 53.957V47.9219C175.059 46.6406 175.701 46 176.686 46ZM175.262 47.5879V53.6172C175.262 54.3906 175.736 54.8379 176.686 54.959H182.545C183.494 54.8027 183.969 54.3281 183.969 53.5352V47.8398C183.836 46.8359 183.334 46.334 182.463 46.334H176.768C175.764 46.5137 175.262 46.9316 175.262 47.5879ZM184.221 47.5059V53.5352C184.033 54.6523 183.475 55.2109 182.545 55.2109H176.598C176.277 55.2109 175.971 55.0996 175.678 54.877H175.596C175.596 55.123 176.043 55.3457 176.938 55.5449H182.545C183.775 55.4121 184.391 54.9375 184.391 54.1211V47.9219L184.309 47.5059H184.221ZM176.023 51.1152L177.447 47.3184H177.969L179.387 51.1152H178.889L178.502 50.0254H176.908L176.521 51.1152H176.023ZM177.025 49.6562H178.385L177.752 47.875L177.705 47.6641C177.693 47.7461 177.678 47.8164 177.658 47.875L177.646 47.916L177.611 48.0156L177.025 49.6562Z"/>
<path d="M187.912 46H194.111C195.393 46.2969 196.033 46.9375 196.033 47.9219V53.957C196.033 55.1562 195.197 55.8262 193.525 55.9668H188.498C186.822 55.8262 185.984 55.1562 185.984 53.957V47.9219C186.285 46.6406 186.928 46 187.912 46ZM186.488 47.5879V53.6172C186.488 54.3906 186.963 54.8379 187.912 54.959H193.771C194.721 54.8027 195.195 54.3281 195.195 53.5352V47.8398C195.062 46.8359 194.561 46.334 193.689 46.334H187.994C186.99 46.5137 186.488 46.9316 186.488 47.5879ZM195.447 47.5059V53.5352C195.26 54.6523 194.701 55.2109 193.771 55.2109H187.824C187.504 55.2109 187.197 55.0996 186.904 54.877H186.822C186.822 55.123 187.27 55.3457 188.164 55.5449H193.771C195.002 55.4121 195.617 54.9375 195.617 54.1211V47.9219L195.535 47.5059H195.447ZM187.291 51.0859V47.2891H188.809C189.164 47.2891 189.432 47.334 189.611 47.4238C189.932 47.5801 190.092 47.8672 190.092 48.2852C190.092 48.5039 190.035 48.707 189.922 48.8945C189.812 49.082 189.584 49.2207 189.236 49.3105L190.484 51.1387H189.951L188.75 49.3926H187.742V51.0859H187.291ZM187.742 49.0059H188.803C189.299 49.0059 189.578 48.8262 189.641 48.4668C189.652 48.4043 189.658 48.3496 189.658 48.3027C189.658 47.8887 189.383 47.6816 188.832 47.6816H187.742V49.0059Z"/>
<path d="M199.139 46H205.338C206.619 46.2969 207.26 46.9375 207.26 47.9219V53.957C207.26 55.1562 206.424 55.8262 204.752 55.9668H199.725C198.049 55.8262 197.211 55.1562 197.211 53.957V47.9219C197.512 46.6406 198.154 46 199.139 46ZM197.715 47.5879V53.6172C197.715 54.3906 198.189 54.8379 199.139 54.959H204.998C205.947 54.8027 206.422 54.3281 206.422 53.5352V47.8398C206.289 46.8359 205.787 46.334 204.916 46.334H199.221C198.217 46.5137 197.715 46.9316 197.715 47.5879ZM206.674 47.5059V53.5352C206.486 54.6523 205.928 55.2109 204.998 55.2109H199.051C198.73 55.2109 198.424 55.0996 198.131 54.877H198.049C198.049 55.123 198.496 55.3457 199.391 55.5449H204.998C206.229 55.4121 206.844 54.9375 206.844 54.1211V47.9219L206.762 47.5059H206.674ZM198.488 51.1094V47.3125H201.061V47.7109H198.939V48.959H200.867V49.3457H198.939V50.7109H201.084V51.1094H198.488ZM204.928 53.6348L205.104 53.3242L203.621 53.3184C203.613 53.2402 203.609 53.1738 203.609 53.1191V53.1016L205.104 53.1074L205.279 52.791L203.639 52.7852C203.674 52.5664 203.752 52.3848 203.873 52.2402C204.006 52.0762 204.176 51.9766 204.383 51.9414C204.457 51.9258 204.527 51.918 204.594 51.918C204.859 51.918 205.096 52.0098 205.303 52.1934L205.496 51.9648C205.281 51.7578 204.98 51.6426 204.594 51.6191C204.148 51.6191 203.801 51.7852 203.551 52.1172C203.406 52.3047 203.314 52.5293 203.275 52.791H203.117V53.1074L203.252 53.1016V53.1191C203.252 53.1973 203.254 53.2637 203.258 53.3184L203.117 53.3242V53.6348L203.311 53.6289C203.385 53.9219 203.514 54.1484 203.697 54.3086C203.873 54.4609 204.115 54.5625 204.424 54.6133H204.559C204.859 54.6133 205.119 54.5293 205.338 54.3613C205.455 54.2637 205.535 54.1387 205.578 53.9863L205.326 53.8047C205.33 53.8242 205.305 53.8926 205.25 54.0098C205.074 54.2441 204.85 54.3457 204.576 54.3145C204.525 54.3145 204.465 54.3105 204.395 54.3027C204.035 54.248 203.795 54.0234 203.674 53.6289L204.928 53.6348Z"/>
</mask>
<path d="M35.9277 46H42.127C43.4082 46.2969 44.0488 46.9375 44.0488 47.9219V53.957C44.0488 55.1562 43.2129 55.8262 41.541 55.9668H36.5137C34.8379 55.8262 34 55.1562 34 53.957V47.9219C34.3008 46.6406 34.9434 46 35.9277 46ZM34.5039 47.5879V53.6172C34.5039 54.3906 34.9785 54.8379 35.9277 54.959H41.7871C42.7363 54.8027 43.2109 54.3281 43.2109 53.5352V47.8398C43.0781 46.8359 42.5762 46.334 41.7051 46.334H36.0098C35.0059 46.5137 34.5039 46.9316 34.5039 47.5879ZM43.4629 47.5059V53.5352C43.2754 54.6523 42.7168 55.2109 41.7871 55.2109H35.8398C35.5195 55.2109 35.2129 55.0996 34.9199 54.877H34.8379C34.8379 55.123 35.2852 55.3457 36.1797 55.5449H41.7871C43.0176 55.4121 43.6328 54.9375 43.6328 54.1211V47.9219L43.5508 47.5059H43.4629ZM35.3242 51.0332V47.2773H35.8398L37.6211 50.0605C37.7109 50.1973 37.7793 50.3262 37.8262 50.4473L37.8848 50.582L37.8496 50.2773L37.832 50.0078V47.2773H38.2832V51.0332H37.7559L35.8164 47.9805L35.6934 47.7051L35.7754 48.2383V51.0332H35.3242Z" fill="#A7F8FF"/>
<path d="M47.1543 46H53.3535C54.6348 46.2969 55.2754 46.9375 55.2754 47.9219V53.957C55.2754 55.1562 54.4395 55.8262 52.7676 55.9668H47.7402C46.0645 55.8262 45.2266 55.1562 45.2266 53.957V47.9219C45.5273 46.6406 46.1699 46 47.1543 46ZM45.7305 47.5879V53.6172C45.7305 54.3906 46.2051 54.8379 47.1543 54.959H53.0137C53.9629 54.8027 54.4375 54.3281 54.4375 53.5352V47.8398C54.3047 46.8359 53.8027 46.334 52.9316 46.334H47.2363C46.2324 46.5137 45.7305 46.9316 45.7305 47.5879ZM54.6895 47.5059V53.5352C54.502 54.6523 53.9434 55.2109 53.0137 55.2109H47.0664C46.7461 55.2109 46.4395 55.0996 46.1465 54.877H46.0645C46.0645 55.123 46.5117 55.3457 47.4062 55.5449H53.0137C54.2441 55.4121 54.8594 54.9375 54.8594 54.1211V47.9219L54.7773 47.5059H54.6895ZM46.5273 49.0879C46.5273 48.5098 46.6738 48.043 46.9668 47.6875C47.2832 47.2969 47.7246 47.1016 48.291 47.1016C48.4238 47.1016 48.543 47.1094 48.6484 47.125C49.1211 47.2031 49.4844 47.4336 49.7383 47.8164C49.9648 48.1602 50.0781 48.584 50.0781 49.0879C50.0781 49.6777 49.9297 50.1504 49.6328 50.5059C49.3164 50.8848 48.8672 51.0742 48.2852 51.0742C47.7305 51.0742 47.293 50.8789 46.9727 50.4883C46.6758 50.125 46.5273 49.6582 46.5273 49.0879ZM47.0137 49.0879C47.0137 49.1895 47.0215 49.3047 47.0371 49.4336C47.0918 49.8086 47.2168 50.1074 47.4121 50.3301C47.6309 50.5762 47.9199 50.6992 48.2793 50.6992C48.3613 50.6992 48.4531 50.6914 48.5547 50.6758C49.1289 50.5781 49.4668 50.1641 49.5684 49.4336C49.5879 49.3047 49.5977 49.1895 49.5977 49.0879C49.5977 48.9902 49.5879 48.877 49.5684 48.748C49.4707 48.0176 49.1328 47.6016 48.5547 47.5C48.457 47.4844 48.3652 47.4766 48.2793 47.4766C47.9238 47.4766 47.6348 47.6016 47.4121 47.8516C47.2129 48.0742 47.0879 48.373 47.0371 48.748C47.0215 48.8809 47.0137 48.9941 47.0137 49.0879Z" fill="#A7F8FF"/>
<path d="M58.3809 46H64.5801C65.8613 46.2969 66.502 46.9375 66.502 47.9219V53.957C66.502 55.1562 65.666 55.8262 63.9941 55.9668H58.9668C57.291 55.8262 56.4531 55.1562 56.4531 53.957V47.9219C56.7539 46.6406 57.3965 46 58.3809 46ZM56.957 47.5879V53.6172C56.957 54.3906 57.4316 54.8379 58.3809 54.959H64.2402C65.1895 54.8027 65.6641 54.3281 65.6641 53.5352V47.8398C65.5312 46.8359 65.0293 46.334 64.1582 46.334H58.4629C57.459 46.5137 56.957 46.9316 56.957 47.5879ZM65.916 47.5059V53.5352C65.7285 54.6523 65.1699 55.2109 64.2402 55.2109H58.293C57.9727 55.2109 57.666 55.0996 57.373 54.877H57.291C57.291 55.123 57.7383 55.3457 58.6328 55.5449H64.2402C65.4707 55.4121 66.0859 54.9375 66.0859 54.1211V47.9219L66.0039 47.5059H65.916ZM57.7305 47.6934V47.2891H60.7363V47.6934H59.4648V51.0859H59.0078V47.6934H57.7305Z" fill="#A7F8FF"/>
<path d="M69.9277 46H126.752C128.033 46.2969 128.674 46.9375 128.674 47.9219V53.957C128.674 55.1562 127.838 55.8262 126.166 55.9668H70.5137C68.8379 55.8262 68 55.1562 68 53.957V47.9219C68.3008 46.6406 68.9434 46 69.9277 46ZM68.5039 47.5879V53.6172C68.5039 54.3906 68.9785 54.8379 69.9277 54.959H126.412C127.361 54.8027 127.836 54.3281 127.836 53.5352V47.8398C127.703 46.8359 127.201 46.334 126.33 46.334H70.0098C69.0059 46.5137 68.5039 46.9316 68.5039 47.5879ZM128.088 47.5059V53.5352C127.9 54.6523 127.342 55.2109 126.412 55.2109H69.8398C69.5195 55.2109 69.2129 55.0996 68.9199 54.877H68.8379C68.8379 55.123 69.2852 55.3457 70.1797 55.5449H126.412C127.643 55.4121 128.258 54.9375 128.258 54.1211V47.9219L128.176 47.5059H128.088Z" fill="#A7F8FF"/>
<path d="M131.779 46H137.979C139.26 46.2969 139.9 46.9375 139.9 47.9219V53.957C139.9 55.1562 139.064 55.8262 137.393 55.9668H132.365C130.689 55.8262 129.852 55.1562 129.852 53.957V47.9219C130.152 46.6406 130.795 46 131.779 46ZM130.355 47.5879V53.6172C130.355 54.3906 130.83 54.8379 131.779 54.959H137.639C138.588 54.8027 139.062 54.3281 139.062 53.5352V47.8398C138.93 46.8359 138.428 46.334 137.557 46.334H131.861C130.857 46.5137 130.355 46.9316 130.355 47.5879ZM139.314 47.5059V53.5352C139.127 54.6523 138.568 55.2109 137.639 55.2109H131.691C131.371 55.2109 131.064 55.0996 130.771 54.877H130.689C130.689 55.123 131.137 55.3457 132.031 55.5449H137.639C138.869 55.4121 139.484 54.9375 139.484 54.1211V47.9219L139.402 47.5059H139.314ZM131.152 49.0879C131.152 48.5098 131.299 48.043 131.592 47.6875C131.908 47.2969 132.35 47.1016 132.916 47.1016C133.049 47.1016 133.168 47.1094 133.273 47.125C133.746 47.2031 134.109 47.4336 134.363 47.8164C134.59 48.1602 134.703 48.584 134.703 49.0879C134.703 49.6777 134.555 50.1504 134.258 50.5059C133.941 50.8848 133.492 51.0742 132.91 51.0742C132.355 51.0742 131.918 50.8789 131.598 50.4883C131.301 50.125 131.152 49.6582 131.152 49.0879ZM131.639 49.0879C131.639 49.1895 131.646 49.3047 131.662 49.4336C131.717 49.8086 131.842 50.1074 132.037 50.3301C132.256 50.5762 132.545 50.6992 132.904 50.6992C132.986 50.6992 133.078 50.6914 133.18 50.6758C133.754 50.5781 134.092 50.1641 134.193 49.4336C134.213 49.3047 134.223 49.1895 134.223 49.0879C134.223 48.9902 134.213 48.877 134.193 48.748C134.096 48.0176 133.758 47.6016 133.18 47.5C133.082 47.4844 132.99 47.4766 132.904 47.4766C132.549 47.4766 132.26 47.6016 132.037 47.8516C131.838 48.0742 131.713 48.373 131.662 48.748C131.646 48.8809 131.639 48.9941 131.639 49.0879Z" fill="#A7F8FF"/>
<path d="M143.006 46H149.205C150.486 46.2969 151.127 46.9375 151.127 47.9219V53.957C151.127 55.1562 150.291 55.8262 148.619 55.9668H143.592C141.916 55.8262 141.078 55.1562 141.078 53.957V47.9219C141.379 46.6406 142.021 46 143.006 46ZM141.582 47.5879V53.6172C141.582 54.3906 142.057 54.8379 143.006 54.959H148.865C149.814 54.8027 150.289 54.3281 150.289 53.5352V47.8398C150.156 46.8359 149.654 46.334 148.783 46.334H143.088C142.084 46.5137 141.582 46.9316 141.582 47.5879ZM150.541 47.5059V53.5352C150.354 54.6523 149.795 55.2109 148.865 55.2109H142.918C142.598 55.2109 142.291 55.0996 141.998 54.877H141.916C141.916 55.123 142.363 55.3457 143.258 55.5449H148.865C150.096 55.4121 150.711 54.9375 150.711 54.1211V47.9219L150.629 47.5059H150.541ZM142.355 51.127V47.3301H144.84V47.7285H142.807V48.9941H144.547V49.375H142.807V51.127H142.355Z" fill="#A7F8FF"/>
<path d="M154.232 46H160.432C161.713 46.2969 162.354 46.9375 162.354 47.9219V53.957C162.354 55.1562 161.518 55.8262 159.846 55.9668H154.818C153.143 55.8262 152.305 55.1562 152.305 53.957V47.9219C152.605 46.6406 153.248 46 154.232 46ZM152.809 47.5879V53.6172C152.809 54.3906 153.283 54.8379 154.232 54.959H160.092C161.041 54.8027 161.516 54.3281 161.516 53.5352V47.8398C161.383 46.8359 160.881 46.334 160.01 46.334H154.314C153.311 46.5137 152.809 46.9316 152.809 47.5879ZM161.768 47.5059V53.5352C161.58 54.6523 161.021 55.2109 160.092 55.2109H154.145C153.824 55.2109 153.518 55.0996 153.225 54.877H153.143C153.143 55.123 153.59 55.3457 154.484 55.5449H160.092C161.322 55.4121 161.938 54.9375 161.938 54.1211V47.9219L161.855 47.5059H161.768ZM153.582 47.6934V47.2891H156.588V47.6934H155.316V51.0859H154.859V47.6934H153.582Z" fill="#A7F8FF"/>
<path d="M165.459 46H171.658C172.939 46.2969 173.58 46.9375 173.58 47.9219V53.957C173.58 55.1562 172.744 55.8262 171.072 55.9668H166.045C164.369 55.8262 163.531 55.1562 163.531 53.957V47.9219C163.832 46.6406 164.475 46 165.459 46ZM164.035 47.5879V53.6172C164.035 54.3906 164.51 54.8379 165.459 54.959H171.318C172.268 54.8027 172.742 54.3281 172.742 53.5352V47.8398C172.609 46.8359 172.107 46.334 171.236 46.334H165.541C164.537 46.5137 164.035 46.9316 164.035 47.5879ZM172.994 47.5059V53.5352C172.807 54.6523 172.248 55.2109 171.318 55.2109H165.371C165.051 55.2109 164.744 55.0996 164.451 54.877H164.369C164.369 55.123 164.816 55.3457 165.711 55.5449H171.318C172.549 55.4121 173.164 54.9375 173.164 54.1211V47.9219L173.082 47.5059H172.994ZM164.809 47.2949H165.289L166.062 50.5879L166.074 50.4766L166.104 50.3242L166.139 50.1426L166.871 47.2949H167.398L168.207 50.5879L168.283 50.1543L168.98 47.2949H169.461L168.453 51.0918H167.943L167.135 47.7168L167.1 47.998L167.059 48.2031L166.326 51.0918H165.811L164.809 47.2949Z" fill="#A7F8FF"/>
<path d="M176.686 46H182.885C184.166 46.2969 184.807 46.9375 184.807 47.9219V53.957C184.807 55.1562 183.971 55.8262 182.299 55.9668H177.271C175.596 55.8262 174.758 55.1562 174.758 53.957V47.9219C175.059 46.6406 175.701 46 176.686 46ZM175.262 47.5879V53.6172C175.262 54.3906 175.736 54.8379 176.686 54.959H182.545C183.494 54.8027 183.969 54.3281 183.969 53.5352V47.8398C183.836 46.8359 183.334 46.334 182.463 46.334H176.768C175.764 46.5137 175.262 46.9316 175.262 47.5879ZM184.221 47.5059V53.5352C184.033 54.6523 183.475 55.2109 182.545 55.2109H176.598C176.277 55.2109 175.971 55.0996 175.678 54.877H175.596C175.596 55.123 176.043 55.3457 176.938 55.5449H182.545C183.775 55.4121 184.391 54.9375 184.391 54.1211V47.9219L184.309 47.5059H184.221ZM176.023 51.1152L177.447 47.3184H177.969L179.387 51.1152H178.889L178.502 50.0254H176.908L176.521 51.1152H176.023ZM177.025 49.6562H178.385L177.752 47.875L177.705 47.6641C177.693 47.7461 177.678 47.8164 177.658 47.875L177.646 47.916L177.611 48.0156L177.025 49.6562Z" fill="#A7F8FF"/>
<path d="M187.912 46H194.111C195.393 46.2969 196.033 46.9375 196.033 47.9219V53.957C196.033 55.1562 195.197 55.8262 193.525 55.9668H188.498C186.822 55.8262 185.984 55.1562 185.984 53.957V47.9219C186.285 46.6406 186.928 46 187.912 46ZM186.488 47.5879V53.6172C186.488 54.3906 186.963 54.8379 187.912 54.959H193.771C194.721 54.8027 195.195 54.3281 195.195 53.5352V47.8398C195.062 46.8359 194.561 46.334 193.689 46.334H187.994C186.99 46.5137 186.488 46.9316 186.488 47.5879ZM195.447 47.5059V53.5352C195.26 54.6523 194.701 55.2109 193.771 55.2109H187.824C187.504 55.2109 187.197 55.0996 186.904 54.877H186.822C186.822 55.123 187.27 55.3457 188.164 55.5449H193.771C195.002 55.4121 195.617 54.9375 195.617 54.1211V47.9219L195.535 47.5059H195.447ZM187.291 51.0859V47.2891H188.809C189.164 47.2891 189.432 47.334 189.611 47.4238C189.932 47.5801 190.092 47.8672 190.092 48.2852C190.092 48.5039 190.035 48.707 189.922 48.8945C189.812 49.082 189.584 49.2207 189.236 49.3105L190.484 51.1387H189.951L188.75 49.3926H187.742V51.0859H187.291ZM187.742 49.0059H188.803C189.299 49.0059 189.578 48.8262 189.641 48.4668C189.652 48.4043 189.658 48.3496 189.658 48.3027C189.658 47.8887 189.383 47.6816 188.832 47.6816H187.742V49.0059Z" fill="#A7F8FF"/>
<path d="M199.139 46H205.338C206.619 46.2969 207.26 46.9375 207.26 47.9219V53.957C207.26 55.1562 206.424 55.8262 204.752 55.9668H199.725C198.049 55.8262 197.211 55.1562 197.211 53.957V47.9219C197.512 46.6406 198.154 46 199.139 46ZM197.715 47.5879V53.6172C197.715 54.3906 198.189 54.8379 199.139 54.959H204.998C205.947 54.8027 206.422 54.3281 206.422 53.5352V47.8398C206.289 46.8359 205.787 46.334 204.916 46.334H199.221C198.217 46.5137 197.715 46.9316 197.715 47.5879ZM206.674 47.5059V53.5352C206.486 54.6523 205.928 55.2109 204.998 55.2109H199.051C198.73 55.2109 198.424 55.0996 198.131 54.877H198.049C198.049 55.123 198.496 55.3457 199.391 55.5449H204.998C206.229 55.4121 206.844 54.9375 206.844 54.1211V47.9219L206.762 47.5059H206.674ZM198.488 51.1094V47.3125H201.061V47.7109H198.939V48.959H200.867V49.3457H198.939V50.7109H201.084V51.1094H198.488ZM204.928 53.6348L205.104 53.3242L203.621 53.3184C203.613 53.2402 203.609 53.1738 203.609 53.1191V53.1016L205.104 53.1074L205.279 52.791L203.639 52.7852C203.674 52.5664 203.752 52.3848 203.873 52.2402C204.006 52.0762 204.176 51.9766 204.383 51.9414C204.457 51.9258 204.527 51.918 204.594 51.918C204.859 51.918 205.096 52.0098 205.303 52.1934L205.496 51.9648C205.281 51.7578 204.98 51.6426 204.594 51.6191C204.148 51.6191 203.801 51.7852 203.551 52.1172C203.406 52.3047 203.314 52.5293 203.275 52.791H203.117V53.1074L203.252 53.1016V53.1191C203.252 53.1973 203.254 53.2637 203.258 53.3184L203.117 53.3242V53.6348L203.311 53.6289C203.385 53.9219 203.514 54.1484 203.697 54.3086C203.873 54.4609 204.115 54.5625 204.424 54.6133H204.559C204.859 54.6133 205.119 54.5293 205.338 54.3613C205.455 54.2637 205.535 54.1387 205.578 53.9863L205.326 53.8047C205.33 53.8242 205.305 53.8926 205.25 54.0098C205.074 54.2441 204.85 54.3457 204.576 54.3145C204.525 54.3145 204.465 54.3105 204.395 54.3027C204.035 54.248 203.795 54.0234 203.674 53.6289L204.928 53.6348Z" fill="#A7F8FF"/>
<path d="M35.9277 46H42.127C43.4082 46.2969 44.0488 46.9375 44.0488 47.9219V53.957C44.0488 55.1562 43.2129 55.8262 41.541 55.9668H36.5137C34.8379 55.8262 34 55.1562 34 53.957V47.9219C34.3008 46.6406 34.9434 46 35.9277 46ZM34.5039 47.5879V53.6172C34.5039 54.3906 34.9785 54.8379 35.9277 54.959H41.7871C42.7363 54.8027 43.2109 54.3281 43.2109 53.5352V47.8398C43.0781 46.8359 42.5762 46.334 41.7051 46.334H36.0098C35.0059 46.5137 34.5039 46.9316 34.5039 47.5879ZM43.4629 47.5059V53.5352C43.2754 54.6523 42.7168 55.2109 41.7871 55.2109H35.8398C35.5195 55.2109 35.2129 55.0996 34.9199 54.877H34.8379C34.8379 55.123 35.2852 55.3457 36.1797 55.5449H41.7871C43.0176 55.4121 43.6328 54.9375 43.6328 54.1211V47.9219L43.5508 47.5059H43.4629ZM35.3242 51.0332V47.2773H35.8398L37.6211 50.0605C37.7109 50.1973 37.7793 50.3262 37.8262 50.4473L37.8848 50.582L37.8496 50.2773L37.832 50.0078V47.2773H38.2832V51.0332H37.7559L35.8164 47.9805L35.6934 47.7051L35.7754 48.2383V51.0332H35.3242Z" stroke="#417BA8" stroke-width="2" mask="url(#path-2-outside-1_226_8)"/>
<path d="M47.1543 46H53.3535C54.6348 46.2969 55.2754 46.9375 55.2754 47.9219V53.957C55.2754 55.1562 54.4395 55.8262 52.7676 55.9668H47.7402C46.0645 55.8262 45.2266 55.1562 45.2266 53.957V47.9219C45.5273 46.6406 46.1699 46 47.1543 46ZM45.7305 47.5879V53.6172C45.7305 54.3906 46.2051 54.8379 47.1543 54.959H53.0137C53.9629 54.8027 54.4375 54.3281 54.4375 53.5352V47.8398C54.3047 46.8359 53.8027 46.334 52.9316 46.334H47.2363C46.2324 46.5137 45.7305 46.9316 45.7305 47.5879ZM54.6895 47.5059V53.5352C54.502 54.6523 53.9434 55.2109 53.0137 55.2109H47.0664C46.7461 55.2109 46.4395 55.0996 46.1465 54.877H46.0645C46.0645 55.123 46.5117 55.3457 47.4062 55.5449H53.0137C54.2441 55.4121 54.8594 54.9375 54.8594 54.1211V47.9219L54.7773 47.5059H54.6895ZM46.5273 49.0879C46.5273 48.5098 46.6738 48.043 46.9668 47.6875C47.2832 47.2969 47.7246 47.1016 48.291 47.1016C48.4238 47.1016 48.543 47.1094 48.6484 47.125C49.1211 47.2031 49.4844 47.4336 49.7383 47.8164C49.9648 48.1602 50.0781 48.584 50.0781 49.0879C50.0781 49.6777 49.9297 50.1504 49.6328 50.5059C49.3164 50.8848 48.8672 51.0742 48.2852 51.0742C47.7305 51.0742 47.293 50.8789 46.9727 50.4883C46.6758 50.125 46.5273 49.6582 46.5273 49.0879ZM47.0137 49.0879C47.0137 49.1895 47.0215 49.3047 47.0371 49.4336C47.0918 49.8086 47.2168 50.1074 47.4121 50.3301C47.6309 50.5762 47.9199 50.6992 48.2793 50.6992C48.3613 50.6992 48.4531 50.6914 48.5547 50.6758C49.1289 50.5781 49.4668 50.1641 49.5684 49.4336C49.5879 49.3047 49.5977 49.1895 49.5977 49.0879C49.5977 48.9902 49.5879 48.877 49.5684 48.748C49.4707 48.0176 49.1328 47.6016 48.5547 47.5C48.457 47.4844 48.3652 47.4766 48.2793 47.4766C47.9238 47.4766 47.6348 47.6016 47.4121 47.8516C47.2129 48.0742 47.0879 48.373 47.0371 48.748C47.0215 48.8809 47.0137 48.9941 47.0137 49.0879Z" stroke="#417BA8" stroke-width="2" mask="url(#path-2-outside-1_226_8)"/>
<path d="M58.3809 46H64.5801C65.8613 46.2969 66.502 46.9375 66.502 47.9219V53.957C66.502 55.1562 65.666 55.8262 63.9941 55.9668H58.9668C57.291 55.8262 56.4531 55.1562 56.4531 53.957V47.9219C56.7539 46.6406 57.3965 46 58.3809 46ZM56.957 47.5879V53.6172C56.957 54.3906 57.4316 54.8379 58.3809 54.959H64.2402C65.1895 54.8027 65.6641 54.3281 65.6641 53.5352V47.8398C65.5312 46.8359 65.0293 46.334 64.1582 46.334H58.4629C57.459 46.5137 56.957 46.9316 56.957 47.5879ZM65.916 47.5059V53.5352C65.7285 54.6523 65.1699 55.2109 64.2402 55.2109H58.293C57.9727 55.2109 57.666 55.0996 57.373 54.877H57.291C57.291 55.123 57.7383 55.3457 58.6328 55.5449H64.2402C65.4707 55.4121 66.0859 54.9375 66.0859 54.1211V47.9219L66.0039 47.5059H65.916ZM57.7305 47.6934V47.2891H60.7363V47.6934H59.4648V51.0859H59.0078V47.6934H57.7305Z" stroke="#417BA8" stroke-width="2" mask="url(#path-2-outside-1_226_8)"/>
<path d="M69.9277 46H126.752C128.033 46.2969 128.674 46.9375 128.674 47.9219V53.957C128.674 55.1562 127.838 55.8262 126.166 55.9668H70.5137C68.8379 55.8262 68 55.1562 68 53.957V47.9219C68.3008 46.6406 68.9434 46 69.9277 46ZM68.5039 47.5879V53.6172C68.5039 54.3906 68.9785 54.8379 69.9277 54.959H126.412C127.361 54.8027 127.836 54.3281 127.836 53.5352V47.8398C127.703 46.8359 127.201 46.334 126.33 46.334H70.0098C69.0059 46.5137 68.5039 46.9316 68.5039 47.5879ZM128.088 47.5059V53.5352C127.9 54.6523 127.342 55.2109 126.412 55.2109H69.8398C69.5195 55.2109 69.2129 55.0996 68.9199 54.877H68.8379C68.8379 55.123 69.2852 55.3457 70.1797 55.5449H126.412C127.643 55.4121 128.258 54.9375 128.258 54.1211V47.9219L128.176 47.5059H128.088Z" stroke="#417BA8" stroke-width="2" mask="url(#path-2-outside-1_226_8)"/>
<path d="M131.779 46H137.979C139.26 46.2969 139.9 46.9375 139.9 47.9219V53.957C139.9 55.1562 139.064 55.8262 137.393 55.9668H132.365C130.689 55.8262 129.852 55.1562 129.852 53.957V47.9219C130.152 46.6406 130.795 46 131.779 46ZM130.355 47.5879V53.6172C130.355 54.3906 130.83 54.8379 131.779 54.959H137.639C138.588 54.8027 139.062 54.3281 139.062 53.5352V47.8398C138.93 46.8359 138.428 46.334 137.557 46.334H131.861C130.857 46.5137 130.355 46.9316 130.355 47.5879ZM139.314 47.5059V53.5352C139.127 54.6523 138.568 55.2109 137.639 55.2109H131.691C131.371 55.2109 131.064 55.0996 130.771 54.877H130.689C130.689 55.123 131.137 55.3457 132.031 55.5449H137.639C138.869 55.4121 139.484 54.9375 139.484 54.1211V47.9219L139.402 47.5059H139.314ZM131.152 49.0879C131.152 48.5098 131.299 48.043 131.592 47.6875C131.908 47.2969 132.35 47.1016 132.916 47.1016C133.049 47.1016 133.168 47.1094 133.273 47.125C133.746 47.2031 134.109 47.4336 134.363 47.8164C134.59 48.1602 134.703 48.584 134.703 49.0879C134.703 49.6777 134.555 50.1504 134.258 50.5059C133.941 50.8848 133.492 51.0742 132.91 51.0742C132.355 51.0742 131.918 50.8789 131.598 50.4883C131.301 50.125 131.152 49.6582 131.152 49.0879ZM131.639 49.0879C131.639 49.1895 131.646 49.3047 131.662 49.4336C131.717 49.8086 131.842 50.1074 132.037 50.3301C132.256 50.5762 132.545 50.6992 132.904 50.6992C132.986 50.6992 133.078 50.6914 133.18 50.6758C133.754 50.5781 134.092 50.1641 134.193 49.4336C134.213 49.3047 134.223 49.1895 134.223 49.0879C134.223 48.9902 134.213 48.877 134.193 48.748C134.096 48.0176 133.758 47.6016 133.18 47.5C133.082 47.4844 132.99 47.4766 132.904 47.4766C132.549 47.4766 132.26 47.6016 132.037 47.8516C131.838 48.0742 131.713 48.373 131.662 48.748C131.646 48.8809 131.639 48.9941 131.639 49.0879Z" stroke="#417BA8" stroke-width="2" mask="url(#path-2-outside-1_226_8)"/>
<path d="M143.006 46H149.205C150.486 46.2969 151.127 46.9375 151.127 47.9219V53.957C151.127 55.1562 150.291 55.8262 148.619 55.9668H143.592C141.916 55.8262 141.078 55.1562 141.078 53.957V47.9219C141.379 46.6406 142.021 46 143.006 46ZM141.582 47.5879V53.6172C141.582 54.3906 142.057 54.8379 143.006 54.959H148.865C149.814 54.8027 150.289 54.3281 150.289 53.5352V47.8398C150.156 46.8359 149.654 46.334 148.783 46.334H143.088C142.084 46.5137 141.582 46.9316 141.582 47.5879ZM150.541 47.5059V53.5352C150.354 54.6523 149.795 55.2109 148.865 55.2109H142.918C142.598 55.2109 142.291 55.0996 141.998 54.877H141.916C141.916 55.123 142.363 55.3457 143.258 55.5449H148.865C150.096 55.4121 150.711 54.9375 150.711 54.1211V47.9219L150.629 47.5059H150.541ZM142.355 51.127V47.3301H144.84V47.7285H142.807V48.9941H144.547V49.375H142.807V51.127H142.355Z" stroke="#417BA8" stroke-width="2" mask="url(#path-2-outside-1_226_8)"/>
<path d="M154.232 46H160.432C161.713 46.2969 162.354 46.9375 162.354 47.9219V53.957C162.354 55.1562 161.518 55.8262 159.846 55.9668H154.818C153.143 55.8262 152.305 55.1562 152.305 53.957V47.9219C152.605 46.6406 153.248 46 154.232 46ZM152.809 47.5879V53.6172C152.809 54.3906 153.283 54.8379 154.232 54.959H160.092C161.041 54.8027 161.516 54.3281 161.516 53.5352V47.8398C161.383 46.8359 160.881 46.334 160.01 46.334H154.314C153.311 46.5137 152.809 46.9316 152.809 47.5879ZM161.768 47.5059V53.5352C161.58 54.6523 161.021 55.2109 160.092 55.2109H154.145C153.824 55.2109 153.518 55.0996 153.225 54.877H153.143C153.143 55.123 153.59 55.3457 154.484 55.5449H160.092C161.322 55.4121 161.938 54.9375 161.938 54.1211V47.9219L161.855 47.5059H161.768ZM153.582 47.6934V47.2891H156.588V47.6934H155.316V51.0859H154.859V47.6934H153.582Z" stroke="#417BA8" stroke-width="2" mask="url(#path-2-outside-1_226_8)"/>
<path d="M165.459 46H171.658C172.939 46.2969 173.58 46.9375 173.58 47.9219V53.957C173.58 55.1562 172.744 55.8262 171.072 55.9668H166.045C164.369 55.8262 163.531 55.1562 163.531 53.957V47.9219C163.832 46.6406 164.475 46 165.459 46ZM164.035 47.5879V53.6172C164.035 54.3906 164.51 54.8379 165.459 54.959H171.318C172.268 54.8027 172.742 54.3281 172.742 53.5352V47.8398C172.609 46.8359 172.107 46.334 171.236 46.334H165.541C164.537 46.5137 164.035 46.9316 164.035 47.5879ZM172.994 47.5059V53.5352C172.807 54.6523 172.248 55.2109 171.318 55.2109H165.371C165.051 55.2109 164.744 55.0996 164.451 54.877H164.369C164.369 55.123 164.816 55.3457 165.711 55.5449H171.318C172.549 55.4121 173.164 54.9375 173.164 54.1211V47.9219L173.082 47.5059H172.994ZM164.809 47.2949H165.289L166.062 50.5879L166.074 50.4766L166.104 50.3242L166.139 50.1426L166.871 47.2949H167.398L168.207 50.5879L168.283 50.1543L168.98 47.2949H169.461L168.453 51.0918H167.943L167.135 47.7168L167.1 47.998L167.059 48.2031L166.326 51.0918H165.811L164.809 47.2949Z" stroke="#417BA8" stroke-width="2" mask="url(#path-2-outside-1_226_8)"/>
<path d="M176.686 46H182.885C184.166 46.2969 184.807 46.9375 184.807 47.9219V53.957C184.807 55.1562 183.971 55.8262 182.299 55.9668H177.271C175.596 55.8262 174.758 55.1562 174.758 53.957V47.9219C175.059 46.6406 175.701 46 176.686 46ZM175.262 47.5879V53.6172C175.262 54.3906 175.736 54.8379 176.686 54.959H182.545C183.494 54.8027 183.969 54.3281 183.969 53.5352V47.8398C183.836 46.8359 183.334 46.334 182.463 46.334H176.768C175.764 46.5137 175.262 46.9316 175.262 47.5879ZM184.221 47.5059V53.5352C184.033 54.6523 183.475 55.2109 182.545 55.2109H176.598C176.277 55.2109 175.971 55.0996 175.678 54.877H175.596C175.596 55.123 176.043 55.3457 176.938 55.5449H182.545C183.775 55.4121 184.391 54.9375 184.391 54.1211V47.9219L184.309 47.5059H184.221ZM176.023 51.1152L177.447 47.3184H177.969L179.387 51.1152H178.889L178.502 50.0254H176.908L176.521 51.1152H176.023ZM177.025 49.6562H178.385L177.752 47.875L177.705 47.6641C177.693 47.7461 177.678 47.8164 177.658 47.875L177.646 47.916L177.611 48.0156L177.025 49.6562Z" stroke="#417BA8" stroke-width="2" mask="url(#path-2-outside-1_226_8)"/>
<path d="M187.912 46H194.111C195.393 46.2969 196.033 46.9375 196.033 47.9219V53.957C196.033 55.1562 195.197 55.8262 193.525 55.9668H188.498C186.822 55.8262 185.984 55.1562 185.984 53.957V47.9219C186.285 46.6406 186.928 46 187.912 46ZM186.488 47.5879V53.6172C186.488 54.3906 186.963 54.8379 187.912 54.959H193.771C194.721 54.8027 195.195 54.3281 195.195 53.5352V47.8398C195.062 46.8359 194.561 46.334 193.689 46.334H187.994C186.99 46.5137 186.488 46.9316 186.488 47.5879ZM195.447 47.5059V53.5352C195.26 54.6523 194.701 55.2109 193.771 55.2109H187.824C187.504 55.2109 187.197 55.0996 186.904 54.877H186.822C186.822 55.123 187.27 55.3457 188.164 55.5449H193.771C195.002 55.4121 195.617 54.9375 195.617 54.1211V47.9219L195.535 47.5059H195.447ZM187.291 51.0859V47.2891H188.809C189.164 47.2891 189.432 47.334 189.611 47.4238C189.932 47.5801 190.092 47.8672 190.092 48.2852C190.092 48.5039 190.035 48.707 189.922 48.8945C189.812 49.082 189.584 49.2207 189.236 49.3105L190.484 51.1387H189.951L188.75 49.3926H187.742V51.0859H187.291ZM187.742 49.0059H188.803C189.299 49.0059 189.578 48.8262 189.641 48.4668C189.652 48.4043 189.658 48.3496 189.658 48.3027C189.658 47.8887 189.383 47.6816 188.832 47.6816H187.742V49.0059Z" stroke="#417BA8" stroke-width="2" mask="url(#path-2-outside-1_226_8)"/>
<path d="M199.139 46H205.338C206.619 46.2969 207.26 46.9375 207.26 47.9219V53.957C207.26 55.1562 206.424 55.8262 204.752 55.9668H199.725C198.049 55.8262 197.211 55.1562 197.211 53.957V47.9219C197.512 46.6406 198.154 46 199.139 46ZM197.715 47.5879V53.6172C197.715 54.3906 198.189 54.8379 199.139 54.959H204.998C205.947 54.8027 206.422 54.3281 206.422 53.5352V47.8398C206.289 46.8359 205.787 46.334 204.916 46.334H199.221C198.217 46.5137 197.715 46.9316 197.715 47.5879ZM206.674 47.5059V53.5352C206.486 54.6523 205.928 55.2109 204.998 55.2109H199.051C198.73 55.2109 198.424 55.0996 198.131 54.877H198.049C198.049 55.123 198.496 55.3457 199.391 55.5449H204.998C206.229 55.4121 206.844 54.9375 206.844 54.1211V47.9219L206.762 47.5059H206.674ZM198.488 51.1094V47.3125H201.061V47.7109H198.939V48.959H200.867V49.3457H198.939V50.7109H201.084V51.1094H198.488ZM204.928 53.6348L205.104 53.3242L203.621 53.3184C203.613 53.2402 203.609 53.1738 203.609 53.1191V53.1016L205.104 53.1074L205.279 52.791L203.639 52.7852C203.674 52.5664 203.752 52.3848 203.873 52.2402C204.006 52.0762 204.176 51.9766 204.383 51.9414C204.457 51.9258 204.527 51.918 204.594 51.918C204.859 51.918 205.096 52.0098 205.303 52.1934L205.496 51.9648C205.281 51.7578 204.98 51.6426 204.594 51.6191C204.148 51.6191 203.801 51.7852 203.551 52.1172C203.406 52.3047 203.314 52.5293 203.275 52.791H203.117V53.1074L203.252 53.1016V53.1191C203.252 53.1973 203.254 53.2637 203.258 53.3184L203.117 53.3242V53.6348L203.311 53.6289C203.385 53.9219 203.514 54.1484 203.697 54.3086C203.873 54.4609 204.115 54.5625 204.424 54.6133H204.559C204.859 54.6133 205.119 54.5293 205.338 54.3613C205.455 54.2637 205.535 54.1387 205.578 53.9863L205.326 53.8047C205.33 53.8242 205.305 53.8926 205.25 54.0098C205.074 54.2441 204.85 54.3457 204.576 54.3145C204.525 54.3145 204.465 54.3105 204.395 54.3027C204.035 54.248 203.795 54.0234 203.674 53.6289L204.928 53.6348Z" stroke="#417BA8" stroke-width="2" mask="url(#path-2-outside-1_226_8)"/>
</svg>
