<svg width="151" height="56" viewBox="0 0 151 56" fill="none" xmlns="http://www.w3.org/2000/svg">
<g filter="url(#filter0_d_226_5)">
<mask id="path-1-outside-1_226_5" maskUnits="userSpaceOnUse" x="4" y="0" width="143" height="48" fill="black">
<rect fill="white" x="4" width="143" height="48"/>
<path d="M9.39456 1H23.5266C26.4474 1.60576 27.9078 2.91293 27.9078 4.92151V17.236C27.9078 19.683 26.0022 21.0499 22.1909 21.3368H10.7303C6.91011 21.0499 5 19.683 5 17.236V4.92151C5.68568 2.30717 7.15053 1 9.39456 1ZM6.14873 4.24003V16.5426C6.14873 18.1207 7.23067 19.0334 9.39456 19.2804H22.7519C24.9158 18.9616 25.9977 17.9932 25.9977 16.3752V4.75412C25.695 2.70569 24.5507 1.68148 22.5649 1.68148H9.58156C7.29301 2.04813 6.14873 2.90098 6.14873 4.24003ZM26.5721 4.07265V16.3752C26.1447 18.6548 24.8713 19.7945 22.7519 19.7945H9.1942C8.464 19.7945 7.76497 19.5674 7.0971 19.1131H6.9101C6.9101 19.6152 7.92971 20.0695 9.96892 20.476H22.7519C25.5569 20.205 26.9595 19.2366 26.9595 17.5708V4.92151L26.7725 4.07265H26.5721ZM8.01875 11.27V3.60637H9.1942L13.2549 9.28538C13.4597 9.56435 13.6155 9.82738 13.7224 10.0745L13.8559 10.3494L13.7758 9.72774L13.7357 9.17778V3.60637H14.7642V11.27H13.5621L9.14077 5.04107L8.86027 4.47914L9.04727 5.56712V11.27H8.01875Z"/>
<path d="M34.9872 1H49.1193C52.0401 1.60576 53.5005 2.91293 53.5005 4.92151V17.236C53.5005 19.683 51.5948 21.0499 47.7835 21.3368H36.323C32.5028 21.0499 30.5927 19.683 30.5927 17.236V4.92151C31.2783 2.30717 32.7432 1 34.9872 1ZM31.7414 4.24003V16.5426C31.7414 18.1207 32.8233 19.0334 34.9872 19.2804H48.3446C50.5084 18.9616 51.5904 17.9932 51.5904 16.3752V4.75412C51.2876 2.70569 50.1433 1.68148 48.1575 1.68148H35.1742C32.8857 2.04813 31.7414 2.90098 31.7414 4.24003ZM52.1647 4.07265V16.3752C51.7373 18.6548 50.4639 19.7945 48.3446 19.7945H34.7869C34.0567 19.7945 33.3576 19.5674 32.6898 19.1131H32.5028C32.5028 19.6152 33.5224 20.0695 35.5616 20.476H48.3446C51.1496 20.205 52.5521 19.2366 52.5521 17.5708V4.92151L52.3651 4.07265H52.1647ZM33.558 7.30071C33.558 6.12107 33.8919 5.1686 34.5598 4.44328C35.2811 3.64622 36.2873 3.24769 37.5785 3.24769C37.8813 3.24769 38.1529 3.26363 38.3933 3.29552C39.4708 3.45493 40.299 3.92519 40.8778 4.7063C41.3943 5.40771 41.6525 6.27251 41.6525 7.30071C41.6525 8.50427 41.3141 9.4687 40.6374 10.194C39.9161 10.9672 38.892 11.3537 37.5652 11.3537C36.3007 11.3537 35.3033 10.9552 34.5731 10.1582C33.8964 9.41689 33.558 8.46441 33.558 7.30071ZM34.6666 7.30071C34.6666 7.50795 34.6845 7.74308 34.7201 8.00611C34.8447 8.77128 35.1297 9.38103 35.5749 9.83535C36.0736 10.3375 36.7326 10.5886 37.5518 10.5886C37.7388 10.5886 37.9481 10.5726 38.1796 10.5407C39.4886 10.3415 40.2589 9.4966 40.4904 8.00611C40.535 7.74308 40.5572 7.50795 40.5572 7.30071C40.5572 7.10145 40.535 6.8703 40.4904 6.60728C40.2678 5.11679 39.4975 4.26792 38.1796 4.06069C37.957 4.0288 37.7477 4.01287 37.5518 4.01287C36.7415 4.01287 36.0825 4.26792 35.5749 4.77804C35.1208 5.23236 34.8358 5.8421 34.7201 6.60728C34.6845 6.87828 34.6666 7.10942 34.6666 7.30071Z"/>
<path d="M60.5799 1H74.7119C77.6327 1.60576 79.0931 2.91293 79.0931 4.92151V17.236C79.0931 19.683 77.1874 21.0499 73.3762 21.3368H61.9156C58.0954 21.0499 56.1853 19.683 56.1853 17.236V4.92151C56.871 2.30717 58.3358 1 60.5799 1ZM57.334 4.24003V16.5426C57.334 18.1207 58.416 19.0334 60.5799 19.2804H73.9371C76.101 18.9616 77.183 17.9932 77.183 16.3752V4.75412C76.8802 2.70569 75.7359 1.68148 73.7502 1.68148H60.7669C58.4783 2.04813 57.334 2.90098 57.334 4.24003ZM77.7574 4.07265V16.3752C77.3299 18.6548 76.0565 19.7945 73.9371 19.7945H60.3795C59.6493 19.7945 58.9503 19.5674 58.2824 19.1131H58.0954C58.0954 19.6152 59.115 20.0695 61.1542 20.476H73.9371C76.7422 20.205 78.1447 19.2366 78.1447 17.5708V4.92151L77.9577 4.07265H77.7574ZM59.0972 4.45523V3.63028H65.9495V4.45523H63.051V11.3776H62.0091V4.45523H59.0972Z"/>
<path d="M5 42.2057V29.9032C5 28.5641 6.14427 27.7113 8.43283 27.3446H136.824C138.809 27.3446 139.954 28.3689 140.256 30.4173V42.0383C140.256 43.6564 139.174 44.6248 137.011 44.9436H8.24582C6.08193 44.6965 5 43.7839 5 42.2057Z"/>
<path d="M140.831 42.0383V29.7358H141.031L141.218 30.5847V43.2339C141.218 44.8998 139.816 45.8682 137.011 46.1392H8.82019C6.78097 45.7327 5.76136 45.2784 5.76136 44.7762H5.94837C6.61623 45.2305 7.31527 45.4577 8.04547 45.4577H137.011C139.13 45.4577 140.403 44.3179 140.831 42.0383Z"/>
</mask>
<path d="M137.785 26.6632L137.887 26.1736L137.837 26.1632H137.785V26.6632ZM136.45 47V47.5H136.468L136.487 47.4986L136.45 47ZM8.24582 27.1632H137.785V26.1632H8.24582V27.1632ZM137.684 27.1527C139.099 27.4463 140.099 27.8985 140.738 28.4704C141.359 29.0265 141.666 29.7186 141.666 30.5847H142.666C142.666 29.4422 142.244 28.4764 141.405 27.7253C140.583 26.99 139.392 26.4858 137.887 26.1736L137.684 27.1527ZM141.666 30.5847V42.8992H142.666V30.5847H141.666ZM141.666 42.8992C141.666 43.9698 141.261 44.7684 140.446 45.3533C139.601 45.9595 138.278 46.3609 136.412 46.5014L136.487 47.4986C138.432 47.3521 139.968 46.9266 141.029 46.1659C142.119 45.3838 142.666 44.2755 142.666 42.8992H141.666ZM136.45 46.5H9.58155V47.5H136.45V46.5ZM145.351 42.8992V30.5847H144.351V42.8992H145.351ZM145.5 29.9032V42.2057H146.5V29.9032H145.5ZM83.0081 17.236V4.92151H82.0081V17.236H83.0081ZM23.5266 1L23.7297 0.0208366L23.6292 0H23.5266V1ZM22.1909 21.3368V22.3368H22.2285L22.266 22.334L22.1909 21.3368ZM10.7303 21.3368L10.6554 22.334L10.6928 22.3368H10.7303V21.3368ZM5 4.92151L4.03272 4.66782L4 4.79255V4.92151H5ZM9.39456 19.2804L9.28111 20.274L9.33765 20.2804H9.39456V19.2804ZM22.7519 19.2804V20.2804H22.8252L22.8977 20.2698L22.7519 19.2804ZM25.9977 4.75412H26.9977V4.68062L26.987 4.60791L25.9977 4.75412ZM9.58156 1.68148V0.681483H9.50197L9.42337 0.694074L9.58156 1.68148ZM26.5721 4.07265V3.07265H25.5721V4.07265H26.5721ZM26.5721 16.3752L27.555 16.5595L27.5721 16.4681V16.3752H26.5721ZM7.0971 19.1131L7.65956 18.2862L7.40499 18.1131H7.0971V19.1131ZM6.9101 19.1131V18.1131H5.9101V19.1131H6.9101ZM9.96892 20.476L9.77343 21.4567L9.87023 21.476H9.96892V20.476ZM22.7519 20.476V21.476H22.8001L22.8481 21.4714L22.7519 20.476ZM26.9595 4.92151H27.9595V4.81267L27.936 4.70637L26.9595 4.92151ZM26.7725 4.07265L27.749 3.85751L27.5761 3.07265H26.7725V4.07265ZM8.01875 11.27H7.01875V12.27H8.01875V11.27ZM8.01875 3.60637V2.60637H7.01875V3.60637H8.01875ZM9.1942 3.60637L10.0076 3.02473L9.70851 2.60637H9.1942V3.60637ZM13.2549 9.28538L12.4413 9.86706L12.4488 9.87719L13.2549 9.28538ZM13.7224 10.0745L12.8045 10.4714L12.8132 10.4916L12.8229 10.5114L13.7224 10.0745ZM13.8559 10.3494L12.9564 10.7864L14.8477 10.2216L13.8559 10.3494ZM13.7758 9.72774L12.7784 9.80042L12.7804 9.82808L12.784 9.85559L13.7758 9.72774ZM13.7357 9.17778H12.7357V9.21416L12.7384 9.25045L13.7357 9.17778ZM13.7357 3.60637V2.60637H12.7357V3.60637H13.7357ZM14.7642 3.60637H15.7642V2.60637H14.7642V3.60637ZM14.7642 11.27V12.27H15.7642V11.27H14.7642ZM13.5621 11.27L12.7466 11.8489L13.0456 12.27H13.5621V11.27ZM9.14077 5.04107L8.24605 5.48769L8.28057 5.55685L8.32531 5.61988L9.14077 5.04107ZM8.86027 4.47914L9.75499 4.03251L7.87472 4.64854L8.86027 4.47914ZM9.04727 5.56712H10.0473V5.48181L10.0328 5.39772L9.04727 5.56712ZM9.04727 11.27V12.27H10.0473V11.27H9.04727ZM49.1193 1L49.3224 0.0208366L49.2219 0H49.1193V1ZM47.7835 21.3368V22.3368H47.8211L47.8586 22.334L47.7835 21.3368ZM36.323 21.3368L36.2481 22.334L36.2854 22.3368H36.323V21.3368ZM30.5927 4.92151L29.6254 4.66782L29.5927 4.79255V4.92151H30.5927ZM34.9872 19.2804L34.8738 20.274L34.9303 20.2804H34.9872V19.2804ZM48.3446 19.2804V20.2804H48.4178L48.4903 20.2698L48.3446 19.2804ZM51.5904 4.75412H52.5904V4.68062L52.5796 4.60791L51.5904 4.75412ZM35.1742 1.68148V0.681483H35.0946L35.016 0.694074L35.1742 1.68148ZM52.1647 4.07265V3.07265H51.1647V4.07265H52.1647ZM52.1647 16.3752L53.1476 16.5595L53.1647 16.4681V16.3752H52.1647ZM32.6898 19.1131L33.2522 18.2862L32.9976 18.1131H32.6898V19.1131ZM32.5028 19.1131V18.1131H31.5028V19.1131H32.5028ZM35.5616 20.476L35.3661 21.4567L35.4629 21.476H35.5616V20.476ZM48.3446 20.476V21.476H48.3927L48.4407 21.4714L48.3446 20.476ZM52.5521 4.92151H53.5521V4.81266L53.5287 4.70637L52.5521 4.92151ZM52.3651 4.07265L53.3417 3.8575L53.1688 3.07265H52.3651V4.07265ZM34.5598 4.44328L35.2955 5.12067L35.3013 5.11427L34.5598 4.44328ZM38.3933 3.29552L38.5397 2.30628L38.5323 2.30518L38.5248 2.30419L38.3933 3.29552ZM40.8778 4.7063L41.6831 4.11336L41.6813 4.11093L40.8778 4.7063ZM40.6374 10.194L39.9062 9.51181L39.9062 9.51186L40.6374 10.194ZM34.5731 10.1582L33.8346 10.8324L33.8358 10.8337L34.5731 10.1582ZM34.7201 8.00611L33.7291 8.1403L33.7309 8.15363L33.7331 8.16691L34.7201 8.00611ZM35.5749 9.83535L34.8607 10.5353L34.8654 10.54L35.5749 9.83535ZM38.1796 10.5407L38.316 11.5314L38.3231 11.5304L38.3301 11.5294L38.1796 10.5407ZM40.4904 8.00611L39.5044 7.83919L39.5023 7.85261L40.4904 8.00611ZM40.4904 6.60728L39.5014 6.755L39.5028 6.7646L39.5045 6.77418L40.4904 6.60728ZM38.1796 4.06069L38.335 3.07273L38.3214 3.07079L38.1796 4.06069ZM35.5749 4.77804L36.2822 5.48501L36.2838 5.48338L35.5749 4.77804ZM34.7201 6.60728L33.7313 6.45769L33.7299 6.46731L33.7286 6.47696L34.7201 6.60728ZM74.7119 1L74.915 0.0208366L74.8145 0H74.7119V1ZM73.3762 21.3368V22.3368H73.4137L73.4512 22.334L73.3762 21.3368ZM61.9156 21.3368L61.8407 22.334L61.8781 22.3368H61.9156V21.3368ZM56.1853 4.92151L55.218 4.66782L55.1853 4.79255V4.92151H56.1853ZM60.5799 19.2804L60.4664 20.274L60.523 20.2804H60.5799V19.2804ZM73.9371 19.2804V20.2804H74.0104L74.0829 20.2698L73.9371 19.2804ZM77.183 4.75412H78.183V4.68062L78.1722 4.60791L77.183 4.75412ZM60.7669 1.68148V0.681483H60.6873L60.6087 0.694074L60.7669 1.68148ZM77.7574 4.07265V3.07265H76.7574V4.07265H77.7574ZM77.7574 16.3752L78.7402 16.5595L78.7574 16.4681V16.3752H77.7574ZM58.2824 19.1131L58.8449 18.2862L58.5903 18.1131H58.2824V19.1131ZM58.0954 19.1131V18.1131H57.0954V19.1131H58.0954ZM61.1542 20.476L60.9587 21.4567L61.0555 21.476H61.1542V20.476ZM73.9371 20.476V21.476H73.9853L74.0333 21.4714L73.9371 20.476ZM78.1447 4.92151H79.1447V4.81267L79.1213 4.70637L78.1447 4.92151ZM77.9577 4.07265L78.9343 3.8575L78.7614 3.07265H77.9577V4.07265ZM59.0972 4.45523H58.0972V5.45523H59.0972V4.45523ZM59.0972 3.63028V2.63028H58.0972V3.63028H59.0972ZM65.9495 3.63028H66.9495V2.63028H65.9495V3.63028ZM65.9495 4.45523V5.45523H66.9495V4.45523H65.9495ZM63.051 4.45523V3.45523H62.051V4.45523H63.051ZM63.051 11.3776V12.3776H64.051V11.3776H63.051ZM62.0091 11.3776H61.0091V12.3776H62.0091V11.3776ZM62.0091 4.45523H63.0091V3.45523H62.0091V4.45523ZM8.24582 44.9436L8.13237 45.9371L8.18891 45.9436H8.24582V44.9436ZM137.011 44.9436V45.9436H137.084L137.156 45.9329L137.011 44.9436ZM140.256 30.4173H141.256V30.3438L141.246 30.2711L140.256 30.4173ZM8.43283 27.3446V26.3446H8.35323L8.27464 26.3572L8.43283 27.3446ZM140.831 29.7358V28.7358H139.831V29.7358H140.831ZM140.831 42.0383L141.814 42.2226L141.831 42.1313V42.0383H140.831ZM5.94837 44.7762L6.51082 43.9494L6.25625 43.7762H5.94837V44.7762ZM5.76136 44.7762V43.7762H4.76136V44.7762H5.76136ZM8.82019 46.1392L8.6247 47.1199L8.72149 47.1392H8.82019V46.1392ZM137.011 46.1392V47.1392H137.059L137.107 47.1345L137.011 46.1392ZM141.218 30.5847H142.218V30.4758L142.195 30.3696L141.218 30.5847ZM141.031 29.7358L142.008 29.5207L141.835 28.7358H141.031V29.7358ZM9.39456 2H23.5266V0H9.39456V2ZM23.3235 1.97916C24.6943 2.26346 25.598 2.68965 26.1456 3.17982C26.6579 3.6384 26.9078 4.19361 26.9078 4.92151H28.9078C28.9078 3.64083 28.4275 2.53817 27.4795 1.68958C26.5667 0.872578 25.2797 0.342303 23.7297 0.0208366L23.3235 1.97916ZM26.9078 4.92151V17.236H28.9078V4.92151H26.9078ZM26.9078 17.236C26.9078 18.1537 26.5736 18.7976 25.8957 19.2839C25.1584 19.8127 23.9421 20.2022 22.1158 20.3397L22.266 22.334C24.251 22.1846 25.8931 21.7471 27.0615 20.909C28.2893 20.0283 28.9078 18.7652 28.9078 17.236H26.9078ZM22.1909 20.3368H10.7303V22.3368H22.1909V20.3368ZM10.8052 20.3397C8.97416 20.2021 7.75419 19.8125 7.01454 19.2832C6.33455 18.7966 6 18.1528 6 17.236H4C4 18.7662 4.6205 20.0293 5.85061 20.9096C7.02107 21.7473 8.66625 22.1846 10.6554 22.334L10.8052 20.3397ZM6 17.236V4.92151H4V17.236H6ZM5.96728 5.1752C6.27843 3.98886 6.73867 3.2084 7.2787 2.7265C7.80172 2.25979 8.48062 2 9.39456 2V0C8.06447 0 6.88893 0.3938 5.94709 1.23425C5.02227 2.05952 4.40724 3.23982 4.03272 4.66782L5.96728 5.1752ZM5.14873 4.24003V16.5426H7.14873V4.24003H5.14873ZM5.14873 16.5426C5.14873 17.5882 5.52158 18.5054 6.31542 19.175C7.06797 19.8098 8.10131 20.1393 9.28111 20.274L9.50801 18.2869C8.52392 18.1745 7.93435 17.9241 7.60495 17.6463C7.31684 17.4033 7.14873 17.0751 7.14873 16.5426H5.14873ZM9.39456 20.2804H22.7519V18.2804H9.39456V20.2804ZM22.8977 20.2698C24.0816 20.0953 25.1097 19.7256 25.8532 19.0601C26.6317 18.3633 26.9977 17.4324 26.9977 16.3752H24.9977C24.9977 16.936 24.8228 17.2983 24.5193 17.5699C24.1809 17.8728 23.5861 18.1467 22.6061 18.2911L22.8977 20.2698ZM26.9977 16.3752V4.75412H24.9977V16.3752H26.9977ZM26.987 4.60791C26.8134 3.43323 26.378 2.41937 25.5794 1.70453C24.7753 0.984807 23.7298 0.681483 22.5649 0.681483V2.68148C23.3858 2.68148 23.9053 2.89026 24.2455 3.19476C24.5911 3.50412 24.8793 4.02659 25.0085 4.90034L26.987 4.60791ZM22.5649 0.681483H9.58156V2.68148H22.5649V0.681483ZM9.42337 0.694074C8.20823 0.888749 7.16739 1.22932 6.40934 1.7943C5.6034 2.39498 5.14873 3.23123 5.14873 4.24003H7.14873C7.14873 3.90978 7.26619 3.65007 7.60453 3.3979C7.99076 3.11004 8.66634 2.84086 9.73975 2.66889L9.42337 0.694074ZM25.5721 4.07265V16.3752H27.5721V4.07265H25.5721ZM25.5892 16.1909C25.4018 17.1906 25.0521 17.8164 24.6295 18.1946C24.2174 18.5635 23.627 18.7945 22.7519 18.7945V20.7945C23.9961 20.7945 25.1021 20.4557 25.9634 19.6848C26.8142 18.9233 27.315 17.8393 27.555 16.5595L25.5892 16.1909ZM22.7519 18.7945H9.1942V20.7945H22.7519V18.7945ZM9.1942 18.7945C8.68572 18.7945 8.17991 18.6402 7.65956 18.2862L6.53465 19.9399C7.35002 20.4946 8.24228 20.7945 9.1942 20.7945V18.7945ZM7.0971 18.1131H6.9101V20.1131H7.0971V18.1131ZM5.9101 19.1131C5.9101 19.6093 6.16931 19.9776 6.41711 20.21C6.65984 20.4377 6.96424 20.6086 7.2678 20.7438C7.8804 21.0168 8.73196 21.2491 9.77343 21.4567L10.1644 19.4953C9.16667 19.2964 8.48882 19.0983 8.08181 18.917C7.87557 18.8251 7.79761 18.7628 7.78544 18.7514C7.77834 18.7447 7.9101 18.8678 7.9101 19.1131H5.9101ZM9.96892 21.476H22.7519V19.476H9.96892V21.476ZM22.8481 21.4714C24.3218 21.329 25.571 20.9941 26.4758 20.3694C27.4399 19.7036 27.9595 18.7412 27.9595 17.5708H25.9595C25.9595 18.0661 25.7777 18.4209 25.3394 18.7236C24.8416 19.0672 23.987 19.352 22.6557 19.4807L22.8481 21.4714ZM27.9595 17.5708V4.92151H25.9595V17.5708H27.9595ZM27.936 4.70637L27.749 3.85751L25.7959 4.28778L25.9829 5.13665L27.936 4.70637ZM26.7725 3.07265H26.5721V5.07265H26.7725V3.07265ZM9.01875 11.27V3.60637H7.01875V11.27H9.01875ZM8.01875 4.60637H9.1942V2.60637H8.01875V4.60637ZM8.38075 4.188L12.4414 9.86702L14.0683 8.70374L10.0076 3.02473L8.38075 4.188ZM12.4488 9.87719C12.621 10.1118 12.7345 10.3096 12.8045 10.4714L14.6402 9.67752C14.4965 9.34518 14.2983 9.01687 14.0609 8.69358L12.4488 9.87719ZM12.8229 10.5114L12.9564 10.7864L14.7554 9.91253L14.6219 9.63754L12.8229 10.5114ZM14.8477 10.2216L14.7676 9.5999L12.784 9.85559L12.8641 10.4773L14.8477 10.2216ZM14.7731 9.65507L14.7331 9.1051L12.7384 9.25045L12.7784 9.80042L14.7731 9.65507ZM14.7357 9.17778V3.60637H12.7357V9.17778H14.7357ZM13.7357 4.60637H14.7642V2.60637H13.7357V4.60637ZM13.7642 3.60637V11.27H15.7642V3.60637H13.7642ZM14.7642 10.27H13.5621V12.27H14.7642V10.27ZM14.3775 10.6912L9.95623 4.46226L8.32531 5.61988L12.7466 11.8489L14.3775 10.6912ZM10.0355 4.59444L9.75499 4.03251L7.96555 4.92577L8.24605 5.48769L10.0355 4.59444ZM7.87472 4.64854L8.06172 5.73652L10.0328 5.39772L9.84581 4.30974L7.87472 4.64854ZM8.04727 5.56712V11.27H10.0473V5.56712H8.04727ZM9.04727 10.27H8.01875V12.27H9.04727V10.27ZM34.9872 2H49.1193V0H34.9872V2ZM48.9162 1.97916C50.287 2.26346 51.1906 2.68965 51.7382 3.17981C52.2506 3.6384 52.5005 4.19361 52.5005 4.92151H54.5005C54.5005 3.64083 54.0202 2.53817 53.0721 1.68958C52.1593 0.872578 50.8724 0.342303 49.3224 0.0208366L48.9162 1.97916ZM52.5005 4.92151V17.236H54.5005V4.92151H52.5005ZM52.5005 17.236C52.5005 18.1537 52.1662 18.7976 51.4884 19.2839C50.7511 19.8127 49.5348 20.2022 47.7085 20.3397L47.8586 22.334C49.8436 22.1846 51.4858 21.7471 52.6541 20.909C53.8819 20.0283 54.5005 18.7652 54.5005 17.236H52.5005ZM47.7835 20.3368H36.323V22.3368H47.7835V20.3368ZM36.3979 20.3397C34.5668 20.2021 33.3468 19.8125 32.6072 19.2832C31.9272 18.7966 31.5927 18.1528 31.5927 17.236H29.5927C29.5927 18.7662 30.2132 20.0293 31.4433 20.9096C32.6137 21.7473 34.2589 22.1846 36.2481 22.334L36.3979 20.3397ZM31.5927 17.236V4.92151H29.5927V17.236H31.5927ZM31.5599 5.1752C31.8711 3.98886 32.3313 3.2084 32.8714 2.7265C33.3944 2.25979 34.0733 2 34.9872 2V0C33.6571 0 32.4816 0.3938 31.5397 1.23425C30.6149 2.05952 29.9999 3.23982 29.6254 4.66782L31.5599 5.1752ZM30.7414 4.24003V16.5426H32.7414V4.24003H30.7414ZM30.7414 16.5426C30.7414 17.5882 31.1142 18.5054 31.9081 19.175C32.6606 19.8098 33.694 20.1393 34.8738 20.274L35.1007 18.2869C34.1166 18.1745 33.527 17.9241 33.1976 17.6463C32.9095 17.4033 32.7414 17.0751 32.7414 16.5426H30.7414ZM34.9872 20.2804H48.3446V18.2804H34.9872V20.2804ZM48.4903 20.2698C49.6743 20.0953 50.7023 19.7256 51.4459 19.0601C52.2243 18.3633 52.5904 17.4324 52.5904 16.3752H50.5904C50.5904 16.936 50.4154 17.2983 50.112 17.5699C49.7736 17.8728 49.1787 18.1467 48.1988 18.2911L48.4903 20.2698ZM52.5904 16.3752V4.75412H50.5904V16.3752H52.5904ZM52.5796 4.60791C52.406 3.43323 51.9707 2.41937 51.172 1.70453C50.3679 0.984807 49.3225 0.681483 48.1575 0.681483V2.68148C48.9784 2.68148 49.498 2.89026 49.8382 3.19476C50.1838 3.50412 50.472 4.02659 50.6011 4.90034L52.5796 4.60791ZM48.1575 0.681483H35.1742V2.68148H48.1575V0.681483ZM35.016 0.694074C33.8009 0.888749 32.7601 1.22932 32.002 1.7943C31.1961 2.39498 30.7414 3.23123 30.7414 4.24003H32.7414C32.7414 3.90978 32.8589 3.65007 33.1972 3.3979C33.5834 3.11004 34.259 2.84086 35.3324 2.66889L35.016 0.694074ZM51.1647 4.07265V16.3752H53.1647V4.07265H51.1647ZM51.1819 16.1909C50.9944 17.1906 50.6448 17.8164 50.2222 18.1946C49.8101 18.5635 49.2197 18.7945 48.3446 18.7945V20.7945C49.5888 20.7945 50.6948 20.4557 51.5561 19.6848C52.4069 18.9233 52.9076 17.8393 53.1476 16.5595L51.1819 16.1909ZM48.3446 18.7945H34.7869V20.7945H48.3446V18.7945ZM34.7869 18.7945C34.2784 18.7945 33.7726 18.6402 33.2522 18.2862L32.1273 19.9399C32.9427 20.4946 33.8349 20.7945 34.7869 20.7945V18.7945ZM32.6898 18.1131H32.5028V20.1131H32.6898V18.1131ZM31.5028 19.1131C31.5028 19.6094 31.762 19.9776 32.0098 20.21C32.2525 20.4377 32.5569 20.6086 32.8605 20.7438C33.4731 21.0168 34.3246 21.2491 35.3661 21.4567L35.7571 19.4953C34.7593 19.2964 34.0815 19.0983 33.6745 18.917C33.4682 18.8251 33.3903 18.7628 33.3781 18.7514C33.371 18.7447 33.5028 18.8678 33.5028 19.1131H31.5028ZM35.5616 21.476H48.3446V19.476H35.5616V21.476ZM48.4407 21.4714C49.9145 21.329 51.1636 20.9941 52.0684 20.3694C53.0326 19.7036 53.5521 18.7412 53.5521 17.5708H51.5521C51.5521 18.0661 51.3704 18.4209 50.932 18.7236C50.4343 19.0672 49.5797 19.352 48.2484 19.4807L48.4407 21.4714ZM53.5521 17.5708V4.92151H51.5521V17.5708H53.5521ZM53.5287 4.70637L53.3417 3.8575L51.3885 4.28779L51.5755 5.13665L53.5287 4.70637ZM52.3651 3.07265H52.1647V5.07265H52.3651V3.07265ZM34.558 7.30071C34.558 6.31988 34.8299 5.62626 35.2954 5.12065L33.8241 3.76591C32.954 4.71093 32.558 5.92227 32.558 7.30071H34.558ZM35.3013 5.11427C35.7951 4.56852 36.5081 4.24769 37.5785 4.24769V2.24769C36.0666 2.24769 34.767 2.72392 33.8183 3.77229L35.3013 5.11427ZM37.5785 4.24769C37.8476 4.24769 38.0742 4.26194 38.2619 4.28684L38.5248 2.30419C38.2317 2.26532 37.915 2.24769 37.5785 2.24769V4.24769ZM38.247 4.28475C39.0964 4.41042 39.6733 4.76039 40.0744 5.30167L41.6813 4.11093C40.9247 3.08999 39.8453 2.49944 38.5397 2.30628L38.247 4.28475ZM40.0726 5.29925C40.4409 5.79941 40.6525 6.44617 40.6525 7.30071H42.6525C42.6525 6.09886 42.3477 5.01601 41.683 4.11336L40.0726 5.29925ZM40.6525 7.30071C40.6525 8.30801 40.3749 9.00949 39.9062 9.51181L41.3685 10.8762C42.2534 9.92792 42.6525 8.70052 42.6525 7.30071H40.6525ZM39.9062 9.51186C39.4199 10.0331 38.6901 10.3537 37.5652 10.3537V12.3537C39.0939 12.3537 40.4122 11.9013 41.3686 10.8762L39.9062 9.51186ZM37.5652 10.3537C36.529 10.3537 35.8187 10.0374 35.3105 9.48265L33.8358 10.8337C34.788 11.873 36.0724 12.3537 37.5652 12.3537V10.3537ZM35.3116 9.4839C34.8297 8.95601 34.558 8.25734 34.558 7.30071H32.558C32.558 8.67149 32.9631 9.87778 33.8346 10.8324L35.3116 9.4839ZM33.6666 7.30071C33.6666 7.56324 33.6891 7.84446 33.7291 8.1403L35.711 7.87191C35.6799 7.6417 35.6666 7.45266 35.6666 7.30071H33.6666ZM33.7331 8.16691C33.8836 9.09039 34.2421 9.90402 34.8607 10.5353L36.2891 9.13541C36.0173 8.85804 35.8059 8.45217 35.7071 7.8453L33.7331 8.16691ZM34.8654 10.54C35.5816 11.2612 36.5117 11.5886 37.5518 11.5886V9.58856C36.9535 9.58856 36.5656 9.41379 36.2845 9.1307L34.8654 10.54ZM37.5518 11.5886C37.7941 11.5886 38.0499 11.568 38.316 11.5314L38.0432 9.55009C37.8463 9.57721 37.6836 9.58856 37.5518 9.58856V11.5886ZM38.3301 11.5294C39.1735 11.401 39.9148 11.0492 40.4781 10.4314C41.0318 9.82405 41.3421 9.03803 41.4786 8.1596L39.5023 7.85261C39.4072 8.46467 39.2167 8.84634 39.0001 9.08391C38.7931 9.31098 38.4948 9.48124 38.0291 9.55213L38.3301 11.5294ZM41.4764 8.17301C41.5278 7.86964 41.5572 7.57712 41.5572 7.30071H39.5572C39.5572 7.43878 39.5422 7.61652 39.5045 7.8392L41.4764 8.17301ZM41.5572 7.30071C41.5572 7.03041 41.5274 6.74132 41.4764 6.44037L39.5045 6.77418C39.5426 6.99929 39.5572 7.17249 39.5572 7.30071H41.5572ZM41.4795 6.45955C41.348 5.57944 41.0402 4.79116 40.4863 4.18077C39.9235 3.56047 39.1806 3.2058 38.335 3.07282L38.0243 5.04855C38.4965 5.12281 38.7978 5.29618 39.0052 5.52475C39.2216 5.76322 39.4102 6.14462 39.5014 6.755L41.4795 6.45955ZM38.3214 3.07079C38.0585 3.03314 37.8015 3.01287 37.5518 3.01287V5.01287C37.694 5.01287 37.8555 5.02447 38.0379 5.05059L38.3214 3.07079ZM37.5518 3.01287C36.512 3.01287 35.5857 3.34949 34.8661 4.07269L36.2838 5.48338C36.5794 5.18635 36.9709 5.01287 37.5518 5.01287V3.01287ZM34.8677 4.07106C34.2338 4.70524 33.8723 5.52573 33.7313 6.45769L35.7088 6.75687C35.7994 6.15848 36.0078 5.75948 36.2822 5.48501L34.8677 4.07106ZM33.7286 6.47696C33.6895 6.77451 33.6666 7.05177 33.6666 7.30071H35.6666C35.6666 7.16707 35.6794 6.98204 35.7115 6.73759L33.7286 6.47696ZM60.5799 2H74.7119V0H60.5799V2ZM74.5088 1.97916C75.8796 2.26346 76.7832 2.68965 77.3309 3.17982C77.8432 3.6384 78.0931 4.19362 78.0931 4.92151H80.0931C80.0931 3.64082 79.6128 2.53816 78.6647 1.68958C77.7519 0.872578 76.465 0.342303 74.915 0.0208366L74.5088 1.97916ZM78.0931 4.92151V17.236H80.0931V4.92151H78.0931ZM78.0931 17.236C78.0931 18.1537 77.7589 18.7976 77.081 19.2839C76.3437 19.8127 75.1274 20.2022 73.3011 20.3397L73.4512 22.334C75.4362 22.1846 77.0784 21.7471 78.2467 20.909C79.4745 20.0283 80.0931 18.7652 80.0931 17.236H78.0931ZM73.3762 20.3368H61.9156V22.3368H73.3762V20.3368ZM61.9905 20.3397C60.1595 20.2021 58.9395 19.8125 58.1998 19.2832C57.5199 18.7966 57.1853 18.1528 57.1853 17.236H55.1853C55.1853 18.7662 55.8058 20.0293 57.0359 20.9096C58.2064 21.7473 59.8515 22.1846 61.8407 22.334L61.9905 20.3397ZM57.1853 17.236V4.92151H55.1853V17.236H57.1853ZM57.1526 5.1752C57.4637 3.98886 57.924 3.2084 58.464 2.7265C58.987 2.25979 59.6659 2 60.5799 2V0C59.2498 0 58.0742 0.3938 57.1324 1.23425C56.2076 2.05952 55.5925 3.23982 55.218 4.66782L57.1526 5.1752ZM56.334 4.24003V16.5426H58.334V4.24003H56.334ZM56.334 16.5426C56.334 17.5882 56.7069 18.5054 57.5007 19.175C58.2533 19.8098 59.2866 20.1393 60.4664 20.274L60.6933 18.2869C59.7092 18.1745 59.1197 17.9241 58.7903 17.6463C58.5021 17.4033 58.334 17.0751 58.334 16.5426H56.334ZM60.5799 20.2804H73.9371V18.2804H60.5799V20.2804ZM74.0829 20.2698C75.2669 20.0953 76.2949 19.7256 77.0385 19.0601C77.817 18.3633 78.183 17.4324 78.183 16.3752H76.183C76.183 16.936 76.0081 17.2983 75.7046 17.5699C75.3662 17.8728 74.7713 18.1467 73.7914 18.2911L74.0829 20.2698ZM78.183 16.3752V4.75412H76.183V16.3752H78.183ZM78.1722 4.60791C77.9986 3.43323 77.5633 2.41937 76.7646 1.70453C75.9606 0.984807 74.9151 0.681483 73.7502 0.681483V2.68148C74.571 2.68148 75.0906 2.89026 75.4308 3.19476C75.7764 3.50412 76.0646 4.02659 76.1937 4.90034L78.1722 4.60791ZM73.7502 0.681483H60.7669V2.68148H73.7502V0.681483ZM60.6087 0.694074C59.3935 0.888749 58.3527 1.22932 57.5946 1.7943C56.7887 2.39498 56.334 3.23123 56.334 4.24003H58.334C58.334 3.90978 58.4515 3.65007 58.7898 3.3979C59.1761 3.11004 59.8516 2.84086 60.9251 2.66889L60.6087 0.694074ZM76.7574 4.07265V16.3752H78.7574V4.07265H76.7574ZM76.7745 16.1909C76.587 17.1906 76.2374 17.8163 75.8148 18.1946C75.4027 18.5635 74.8123 18.7945 73.9371 18.7945V20.7945C75.1814 20.7945 76.2874 20.4557 77.1487 19.6848C77.9995 18.9233 78.5003 17.8393 78.7402 16.5595L76.7745 16.1909ZM73.9371 18.7945H60.3795V20.7945H73.9371V18.7945ZM60.3795 18.7945C59.871 18.7945 59.3652 18.6402 58.8449 18.2862L57.7199 19.9399C58.5353 20.4946 59.4276 20.7945 60.3795 20.7945V18.7945ZM58.2824 18.1131H58.0954V20.1131H58.2824V18.1131ZM57.0954 19.1131C57.0954 19.6093 57.3546 19.9776 57.6024 20.21C57.8451 20.4377 58.1495 20.6086 58.4531 20.7438C59.0657 21.0168 59.9173 21.2491 60.9587 21.4567L61.3497 19.4953C60.352 19.2964 59.6741 19.0983 59.2671 18.917C59.0609 18.8251 58.9829 18.7628 58.9707 18.7514C58.9636 18.7447 59.0954 18.8678 59.0954 19.1131H57.0954ZM61.1542 21.476H73.9371V19.476H61.1542V21.476ZM74.0333 21.4714C75.5071 21.329 76.7562 20.9941 77.661 20.3694C78.6252 19.7036 79.1447 18.7412 79.1447 17.5708H77.1447C77.1447 18.0661 76.963 18.4209 76.5246 18.7236C76.0269 19.0672 75.1723 19.352 73.841 19.4807L74.0333 21.4714ZM79.1447 17.5708V4.92151H77.1447V17.5708H79.1447ZM79.1213 4.70637L78.9343 3.8575L76.9811 4.28779L77.1681 5.13665L79.1213 4.70637ZM77.9577 3.07265H77.7574V5.07265H77.9577V3.07265ZM60.0972 4.45523V3.63028H58.0972V4.45523H60.0972ZM59.0972 4.63028H65.9495V2.63028H59.0972V4.63028ZM64.9495 3.63028V4.45523H66.9495V3.63028H64.9495ZM65.9495 3.45523H63.051V5.45523H65.9495V3.45523ZM62.051 4.45523V11.3776H64.051V4.45523H62.051ZM63.051 10.3776H62.0091V12.3776H63.051V10.3776ZM63.0091 11.3776V4.45523H61.0091V11.3776H63.0091ZM62.0091 3.45523H59.0972V5.45523H62.0091V3.45523ZM4 29.9032V42.2057H6V29.9032H4ZM4 42.2057C4 43.2514 4.37285 44.1686 5.16669 44.8382C5.91923 45.473 6.95257 45.8024 8.13237 45.9371L8.35927 43.9501C7.37518 43.8377 6.78561 43.5873 6.45622 43.3094C6.16811 43.0664 6 42.7383 6 42.2057H4ZM8.24582 45.9436H137.011V43.9436H8.24582V45.9436ZM137.156 45.9329C138.34 45.7585 139.368 45.3888 140.112 44.7233C140.89 44.0265 141.256 43.0955 141.256 42.0383H139.256C139.256 42.5991 139.081 42.9614 138.778 43.233C138.44 43.536 137.845 43.8099 136.865 43.9543L137.156 45.9329ZM141.256 42.0383V30.4173H139.256V42.0383H141.256ZM141.246 30.2711C141.072 29.0964 140.637 28.0825 139.838 27.3677C139.034 26.648 137.988 26.3446 136.824 26.3446V28.3446C137.644 28.3446 138.164 28.5534 138.504 28.8579C138.85 29.1673 139.138 29.6897 139.267 30.5635L141.246 30.2711ZM136.824 26.3446H8.43283V28.3446H136.824V26.3446ZM8.27464 26.3572C7.0595 26.5519 6.01866 26.8925 5.26061 27.4575C4.45467 28.0581 4 28.8944 4 29.9032H6C6 29.5729 6.11746 29.3132 6.4558 29.0611C6.84203 28.7732 7.5176 28.504 8.59102 28.332L8.27464 26.3572ZM139.831 29.7358V42.0383H141.831V29.7358H139.831ZM139.848 41.854C139.66 42.8538 139.311 43.4795 138.888 43.8577C138.476 44.2266 137.886 44.4577 137.011 44.4577V46.4577C138.255 46.4577 139.361 46.1189 140.222 45.348C141.073 44.5864 141.574 43.5025 141.814 42.2226L139.848 41.854ZM137.011 44.4577H8.04547V46.4577H137.011V44.4577ZM8.04547 44.4577C7.53699 44.4577 7.03118 44.3034 6.51082 43.9494L5.38591 45.603C6.20129 46.1577 7.09354 46.4577 8.04547 46.4577V44.4577ZM5.94837 43.7762H5.76136V45.7762H5.94837V43.7762ZM4.76136 44.7762C4.76136 45.2725 5.02057 45.6407 5.26838 45.8732C5.51111 46.1009 5.8155 46.2717 6.11906 46.407C6.73167 46.68 7.58323 46.9123 8.6247 47.1199L9.01569 45.1585C8.01794 44.9596 7.34008 44.7615 6.93308 44.5801C6.72683 44.4882 6.64887 44.4259 6.6367 44.4145C6.6296 44.4079 6.76136 44.531 6.76136 44.7762H4.76136ZM8.82019 47.1392H137.011V45.1392H8.82019V47.1392ZM137.107 47.1345C138.58 46.9922 139.83 46.6573 140.734 46.0325C141.699 45.3668 142.218 44.4044 142.218 43.2339H140.218C140.218 43.7293 140.036 44.084 139.598 44.3867C139.1 44.7304 138.246 45.0152 136.914 45.1438L137.107 47.1345ZM142.218 43.2339V30.5847H140.218V43.2339H142.218ZM142.195 30.3696L142.008 29.5207L140.055 29.9509L140.241 30.7998L142.195 30.3696ZM141.031 28.7358H140.831V30.7358H141.031V28.7358Z" fill="#53FCFF" mask="url(#path-1-outside-1_226_5)"/>
</g>
<defs>
<filter id="filter0_d_226_5" x="0" y="0" width="150.5" height="55.5" filterUnits="userSpaceOnUse" color-interpolation-filters="sRGB">
<feFlood flood-opacity="0" result="BackgroundImageFix"/>
<feColorMatrix in="SourceAlpha" type="matrix" values="0 0 0 0 0 0 0 0 0 0 0 0 0 0 0 0 0 0 127 0" result="hardAlpha"/>
<feOffset dy="4"/>
<feGaussianBlur stdDeviation="2"/>
<feComposite in2="hardAlpha" operator="out"/>
<feColorMatrix type="matrix" values="0 0 0 0 0.601676 0 0 0 0 0.847309 0 0 0 0 1 0 0 0 1 0"/>
<feBlend mode="normal" in2="BackgroundImageFix" result="effect1_dropShadow_226_5"/>
<feBlend mode="normal" in="SourceGraphic" in2="effect1_dropShadow_226_5" result="shape"/>
</filter>
</defs>
</svg>
