<svg width="253" height="109" viewBox="0 0 253 109" fill="none" xmlns="http://www.w3.org/2000/svg">
<mask id="path-1-outside-1_226_8" maskUnits="userSpaceOnUse" x="14" y="43" width="231" height="23" fill="black">
<rect fill="white" x="14" y="43" width="231" height="23"/>
<path d="M19.5815 44H34.3147C37.3597 44.6255 38.8822 45.9753 38.8822 48.0494V60.7654C38.8822 63.2922 36.8955 64.7037 32.9221 65H20.974C16.9913 64.7037 15 63.2922 15 60.7654V48.0494C15.7148 45.3498 17.242 44 19.5815 44ZM16.1976 47.3457V60.0494C16.1976 61.679 17.3256 62.6214 19.5815 62.8765H33.507C35.7629 62.5473 36.8909 61.5473 36.8909 59.8765V47.8765C36.5752 45.7613 35.3823 44.7037 33.312 44.7037H19.7764C17.3905 45.0823 16.1976 45.963 16.1976 47.3457ZM37.4897 47.1728V59.8765C37.044 62.2305 35.7165 63.4074 33.507 63.4074H19.3726C18.6113 63.4074 17.8826 63.1728 17.1863 62.7037H16.9913C16.9913 63.2222 18.0543 63.6914 20.1803 64.1111H33.507C36.4313 63.8313 37.8935 62.8313 37.8935 61.1111V48.0494L37.6985 47.1728H37.4897ZM18.1472 54.6049V46.6914H19.3726L23.606 52.5556C23.8195 52.8436 23.9819 53.1152 24.0933 53.3704L24.2326 53.6543L24.149 53.0123L24.1073 52.4444V46.6914H25.1795V54.6049H23.9262L19.3169 48.1728L19.0245 47.5926L19.2194 48.716V54.6049H18.1472Z"/>
<path d="M46.2627 44H60.9959C64.0409 44.6255 65.5634 45.9753 65.5634 48.0494V60.7654C65.5634 63.2922 63.5767 64.7037 59.6033 65H47.6553C43.6726 64.7037 41.6812 63.2922 41.6812 60.7654V48.0494C42.3961 45.3498 43.9232 44 46.2627 44ZM42.8788 47.3457V60.0494C42.8788 61.679 44.0068 62.6214 46.2627 62.8765H60.1882C62.4441 62.5473 63.5721 61.5473 63.5721 59.8765V47.8765C63.2565 45.7613 62.0635 44.7037 59.9932 44.7037H46.4577C44.0718 45.0823 42.8788 45.963 42.8788 47.3457ZM64.1709 47.1728V59.8765C63.7253 62.2305 62.3977 63.4074 60.1882 63.4074H46.0538C45.2926 63.4074 44.5638 63.1728 43.8675 62.7037H43.6726C43.6726 63.2222 44.7356 63.6914 46.8615 64.1111H60.1882C63.1126 63.8313 64.5747 62.8313 64.5747 61.1111V48.0494L64.3798 47.1728H64.1709ZM44.7727 50.5062C44.7727 49.2881 45.1208 48.3045 45.8171 47.5556C46.5691 46.7325 47.6181 46.321 48.9643 46.321C49.2799 46.321 49.5631 46.3374 49.8137 46.3704C50.937 46.535 51.8004 47.0206 52.4039 47.8272C52.9423 48.5514 53.2115 49.4444 53.2115 50.5062C53.2115 51.749 52.8588 52.7449 52.1532 53.4938C51.4012 54.2922 50.3336 54.6914 48.9503 54.6914C47.6321 54.6914 46.5923 54.2798 45.831 53.4568C45.1255 52.6914 44.7727 51.7078 44.7727 50.5062ZM45.9285 50.5062C45.9285 50.7202 45.9471 50.963 45.9842 51.2346C46.1142 52.0247 46.4113 52.6543 46.8754 53.1235C47.3953 53.642 48.0823 53.9012 48.9364 53.9012C49.1314 53.9012 49.3495 53.8848 49.5909 53.8519C50.9556 53.6461 51.7586 52.7737 52 51.2346C52.0464 50.963 52.0696 50.7202 52.0696 50.5062C52.0696 50.3004 52.0464 50.0617 52 49.7901C51.7679 48.251 50.9649 47.3745 49.5909 47.1605C49.3588 47.1276 49.1407 47.1111 48.9364 47.1111C48.0916 47.1111 47.4046 47.3745 46.8754 47.9012C46.402 48.3704 46.1049 49 45.9842 49.7901C45.9471 50.07 45.9285 50.3086 45.9285 50.5062Z"/>
<path d="M72.944 44H87.6771C90.7222 44.6255 92.2447 45.9753 92.2447 48.0494V60.7654C92.2447 63.2922 90.258 64.7037 86.2846 65H74.3365C70.3538 64.7037 68.3625 63.2922 68.3625 60.7654V48.0494C69.0773 45.3498 70.6045 44 72.944 44ZM69.5601 47.3457V60.0494C69.5601 61.679 70.688 62.6214 72.944 62.8765H86.8694C89.1254 62.5473 90.2533 61.5473 90.2533 59.8765V47.8765C89.9377 45.7613 88.7447 44.7037 86.6745 44.7037H73.1389C70.753 45.0823 69.5601 45.963 69.5601 47.3457ZM90.8521 47.1728V59.8765C90.4065 62.2305 89.0789 63.4074 86.8694 63.4074H72.7351C71.9738 63.4074 71.245 63.1728 70.5488 62.7037H70.3538C70.3538 63.2222 71.4168 63.6914 73.5427 64.1111H86.8694C89.7938 63.8313 91.256 62.8313 91.256 61.1111V48.0494L91.061 47.1728H90.8521ZM71.3982 47.5679V46.716H78.542V47.5679H75.5202V54.716H74.434V47.5679H71.3982Z"/>
<path d="M100.386 44H235.436C238.481 44.6255 240.003 45.9753 240.003 48.0494V60.7654C240.003 63.2922 238.017 64.7037 234.043 65H101.779C97.7963 64.7037 95.805 63.2922 95.805 60.7654V48.0494C96.5198 45.3498 98.047 44 100.386 44ZM97.0026 47.3457V60.0494C97.0026 61.679 98.1305 62.6214 100.386 62.8765H234.628C236.884 62.5473 238.012 61.5473 238.012 59.8765V47.8765C237.696 45.7613 236.503 44.7037 234.433 44.7037H100.581C98.1955 45.0823 97.0026 45.963 97.0026 47.3457ZM238.611 47.1728V59.8765C238.165 62.2305 236.838 63.4074 234.628 63.4074H100.178C99.4163 63.4074 98.6875 63.1728 97.9913 62.7037H97.7963C97.7963 63.2222 98.8593 63.6914 100.985 64.1111H234.628C237.552 63.8313 239.015 62.8313 239.015 61.1111V48.0494L238.82 47.1728H238.611Z"/>
</mask>
<path d="M19.5815 44H34.3147C37.3597 44.6255 38.8822 45.9753 38.8822 48.0494V60.7654C38.8822 63.2922 36.8955 64.7037 32.9221 65H20.974C16.9913 64.7037 15 63.2922 15 60.7654V48.0494C15.7148 45.3498 17.242 44 19.5815 44ZM16.1976 47.3457V60.0494C16.1976 61.679 17.3256 62.6214 19.5815 62.8765H33.507C35.7629 62.5473 36.8909 61.5473 36.8909 59.8765V47.8765C36.5752 45.7613 35.3823 44.7037 33.312 44.7037H19.7764C17.3905 45.0823 16.1976 45.963 16.1976 47.3457ZM37.4897 47.1728V59.8765C37.044 62.2305 35.7165 63.4074 33.507 63.4074H19.3726C18.6113 63.4074 17.8826 63.1728 17.1863 62.7037H16.9913C16.9913 63.2222 18.0543 63.6914 20.1803 64.1111H33.507C36.4313 63.8313 37.8935 62.8313 37.8935 61.1111V48.0494L37.6985 47.1728H37.4897ZM18.1472 54.6049V46.6914H19.3726L23.606 52.5556C23.8195 52.8436 23.9819 53.1152 24.0933 53.3704L24.2326 53.6543L24.149 53.0123L24.1073 52.4444V46.6914H25.1795V54.6049H23.9262L19.3169 48.1728L19.0245 47.5926L19.2194 48.716V54.6049H18.1472Z" fill="black"/>
<path d="M46.2627 44H60.9959C64.0409 44.6255 65.5634 45.9753 65.5634 48.0494V60.7654C65.5634 63.2922 63.5767 64.7037 59.6033 65H47.6553C43.6726 64.7037 41.6812 63.2922 41.6812 60.7654V48.0494C42.3961 45.3498 43.9232 44 46.2627 44ZM42.8788 47.3457V60.0494C42.8788 61.679 44.0068 62.6214 46.2627 62.8765H60.1882C62.4441 62.5473 63.5721 61.5473 63.5721 59.8765V47.8765C63.2565 45.7613 62.0635 44.7037 59.9932 44.7037H46.4577C44.0718 45.0823 42.8788 45.963 42.8788 47.3457ZM64.1709 47.1728V59.8765C63.7253 62.2305 62.3977 63.4074 60.1882 63.4074H46.0538C45.2926 63.4074 44.5638 63.1728 43.8675 62.7037H43.6726C43.6726 63.2222 44.7356 63.6914 46.8615 64.1111H60.1882C63.1126 63.8313 64.5747 62.8313 64.5747 61.1111V48.0494L64.3798 47.1728H64.1709ZM44.7727 50.5062C44.7727 49.2881 45.1208 48.3045 45.8171 47.5556C46.5691 46.7325 47.6181 46.321 48.9643 46.321C49.2799 46.321 49.5631 46.3374 49.8137 46.3704C50.937 46.535 51.8004 47.0206 52.4039 47.8272C52.9423 48.5514 53.2115 49.4444 53.2115 50.5062C53.2115 51.749 52.8588 52.7449 52.1532 53.4938C51.4012 54.2922 50.3336 54.6914 48.9503 54.6914C47.6321 54.6914 46.5923 54.2798 45.831 53.4568C45.1255 52.6914 44.7727 51.7078 44.7727 50.5062ZM45.9285 50.5062C45.9285 50.7202 45.9471 50.963 45.9842 51.2346C46.1142 52.0247 46.4113 52.6543 46.8754 53.1235C47.3953 53.642 48.0823 53.9012 48.9364 53.9012C49.1314 53.9012 49.3495 53.8848 49.5909 53.8519C50.9556 53.6461 51.7586 52.7737 52 51.2346C52.0464 50.963 52.0696 50.7202 52.0696 50.5062C52.0696 50.3004 52.0464 50.0617 52 49.7901C51.7679 48.251 50.9649 47.3745 49.5909 47.1605C49.3588 47.1276 49.1407 47.1111 48.9364 47.1111C48.0916 47.1111 47.4046 47.3745 46.8754 47.9012C46.402 48.3704 46.1049 49 45.9842 49.7901C45.9471 50.07 45.9285 50.3086 45.9285 50.5062Z" fill="black"/>
<path d="M72.944 44H87.6771C90.7222 44.6255 92.2447 45.9753 92.2447 48.0494V60.7654C92.2447 63.2922 90.258 64.7037 86.2846 65H74.3365C70.3538 64.7037 68.3625 63.2922 68.3625 60.7654V48.0494C69.0773 45.3498 70.6045 44 72.944 44ZM69.5601 47.3457V60.0494C69.5601 61.679 70.688 62.6214 72.944 62.8765H86.8694C89.1254 62.5473 90.2533 61.5473 90.2533 59.8765V47.8765C89.9377 45.7613 88.7447 44.7037 86.6745 44.7037H73.1389C70.753 45.0823 69.5601 45.963 69.5601 47.3457ZM90.8521 47.1728V59.8765C90.4065 62.2305 89.0789 63.4074 86.8694 63.4074H72.7351C71.9738 63.4074 71.245 63.1728 70.5488 62.7037H70.3538C70.3538 63.2222 71.4168 63.6914 73.5427 64.1111H86.8694C89.7938 63.8313 91.256 62.8313 91.256 61.1111V48.0494L91.061 47.1728H90.8521ZM71.3982 47.5679V46.716H78.542V47.5679H75.5202V54.716H74.434V47.5679H71.3982Z" fill="black"/>
<path d="M100.386 44H235.436C238.481 44.6255 240.003 45.9753 240.003 48.0494V60.7654C240.003 63.2922 238.017 64.7037 234.043 65H101.779C97.7963 64.7037 95.805 63.2922 95.805 60.7654V48.0494C96.5198 45.3498 98.047 44 100.386 44ZM97.0026 47.3457V60.0494C97.0026 61.679 98.1305 62.6214 100.386 62.8765H234.628C236.884 62.5473 238.012 61.5473 238.012 59.8765V47.8765C237.696 45.7613 236.503 44.7037 234.433 44.7037H100.581C98.1955 45.0823 97.0026 45.963 97.0026 47.3457ZM238.611 47.1728V59.8765C238.165 62.2305 236.838 63.4074 234.628 63.4074H100.178C99.4163 63.4074 98.6875 63.1728 97.9913 62.7037H97.7963C97.7963 63.2222 98.8593 63.6914 100.985 64.1111H234.628C237.552 63.8313 239.015 62.8313 239.015 61.1111V48.0494L238.82 47.1728H238.611Z" fill="black"/>
<path d="M243.302 60.7654V48.0494H242.302V60.7654H243.302ZM243.5 47.3457V60.0494H244.5V47.3457H243.5ZM34.3147 44L34.5159 43.0205L34.4163 43H34.3147V44ZM32.9221 65V66H32.9593L32.9965 65.9972L32.9221 65ZM20.974 65L20.8998 65.9972L20.9369 66H20.974V65ZM15 48.0494L14.0333 47.7934L14 47.9192V48.0494H15ZM19.5815 62.8765L19.4691 63.8702L19.5251 63.8765H19.5815V62.8765ZM33.507 62.8765V63.8765H33.5796L33.6514 63.8661L33.507 62.8765ZM36.8909 47.8765H37.8909V47.8023L37.8799 47.729L36.8909 47.8765ZM19.7764 44.7037V43.7037H19.6976L19.6197 43.7161L19.7764 44.7037ZM37.4897 47.1728V46.1728H36.4897V47.1728H37.4897ZM37.4897 59.8765L38.4722 60.0625L38.4897 59.9704V59.8765H37.4897ZM17.1863 62.7037L17.7451 61.8744L17.4918 61.7037H17.1863V62.7037ZM16.9913 62.7037V61.7037H15.9913V62.7037H16.9913ZM20.1803 64.1111L19.9866 65.0922L20.0825 65.1111H20.1803V64.1111ZM33.507 64.1111V65.1111H33.5547L33.6022 65.1066L33.507 64.1111ZM37.8935 48.0494H38.8935V47.9395L38.8696 47.8323L37.8935 48.0494ZM37.6985 47.1728L38.6747 46.9557L38.5006 46.1728H37.6985V47.1728ZM18.1472 54.6049H17.1472V55.6049H18.1472V54.6049ZM18.1472 46.6914V45.6914H17.1472V46.6914H18.1472ZM19.3726 46.6914L20.1834 46.106L19.884 45.6914H19.3726V46.6914ZM23.606 52.5556L22.7951 53.1409L22.8026 53.151L23.606 52.5556ZM24.0933 53.3704L23.1769 53.7705L23.1858 53.7908L23.1955 53.8107L24.0933 53.3704ZM24.2326 53.6543L23.3348 54.0946L25.2242 53.5253L24.2326 53.6543ZM24.149 53.0123L23.1517 53.0857L23.1538 53.1136L23.1574 53.1414L24.149 53.0123ZM24.1073 52.4444H23.1073V52.4812L23.11 52.5178L24.1073 52.4444ZM24.1073 46.6914V45.6914H23.1073V46.6914H24.1073ZM25.1795 46.6914H26.1795V45.6914H25.1795V46.6914ZM25.1795 54.6049V55.6049H26.1795V54.6049H25.1795ZM23.9262 54.6049L23.1134 55.1874L23.4126 55.6049H23.9262V54.6049ZM19.3169 48.1728L18.4239 48.6229L18.4588 48.6922L18.5041 48.7553L19.3169 48.1728ZM19.0245 47.5926L19.9175 47.1425L18.0392 47.7636L19.0245 47.5926ZM19.2194 48.716H20.2194V48.6299L20.2047 48.5451L19.2194 48.716ZM19.2194 54.6049V55.6049H20.2194V54.6049H19.2194ZM60.9959 44L61.1971 43.0205L61.0975 43H60.9959V44ZM59.6033 65V66H59.6406L59.6777 65.9972L59.6033 65ZM47.6553 65L47.5811 65.9972L47.6181 66H47.6553V65ZM41.6812 48.0494L40.7145 47.7934L40.6812 47.9192V48.0494H41.6812ZM46.2627 62.8765L46.1503 63.8702L46.2063 63.8765H46.2627V62.8765ZM60.1882 62.8765V63.8765H60.2608L60.3326 63.8661L60.1882 62.8765ZM63.5721 47.8765H64.5721V47.8023L64.5611 47.729L63.5721 47.8765ZM46.4577 44.7037V43.7037H46.3788L46.301 43.7161L46.4577 44.7037ZM64.1709 47.1728V46.1728H63.1709V47.1728H64.1709ZM64.1709 59.8765L65.1534 60.0625L65.1709 59.9704V59.8765H64.1709ZM43.8675 62.7037L44.4263 61.8744L44.173 61.7037H43.8675V62.7037ZM43.6726 62.7037V61.7037H42.6726V62.7037H43.6726ZM46.8615 64.1111L46.6678 65.0922L46.7637 65.1111H46.8615V64.1111ZM60.1882 64.1111V65.1111H60.2359L60.2835 65.1066L60.1882 64.1111ZM64.5747 48.0494H65.5747V47.9395L65.5509 47.8323L64.5747 48.0494ZM64.3798 47.1728L65.3559 46.9557L65.1818 46.1728H64.3798V47.1728ZM45.8171 47.5556L46.5495 48.2365L46.5554 48.2301L45.8171 47.5556ZM49.8137 46.3704L49.9587 45.3809L49.9513 45.3799L49.9439 45.3789L49.8137 46.3704ZM52.4039 47.8272L53.2064 47.2305L53.2046 47.2281L52.4039 47.8272ZM52.1532 53.4938L51.4253 52.8081L51.4253 52.8082L52.1532 53.4938ZM45.831 53.4568L45.0957 54.1346L45.0969 54.1358L45.831 53.4568ZM45.9842 51.2346L44.9934 51.37L44.9953 51.3835L44.9975 51.3969L45.9842 51.2346ZM46.8754 53.1235L46.1646 53.8268L46.1693 53.8315L46.8754 53.1235ZM49.5909 53.8519L49.7261 54.8428L49.74 54.8407L49.5909 53.8519ZM52 51.2346L51.0142 51.0661L51.0121 51.0796L52 51.2346ZM52 49.7901L51.0112 49.9392L51.0127 49.9489L51.0143 49.9586L52 49.7901ZM49.5909 47.1605L49.7448 46.1723L49.7314 46.1704L49.5909 47.1605ZM46.8754 47.9012L47.5793 48.6116L47.5809 48.61L46.8754 47.9012ZM45.9842 49.7901L44.9957 49.6391L44.9942 49.6488L44.9929 49.6586L45.9842 49.7901ZM87.6771 44L87.8783 43.0205L87.7788 43H87.6771V44ZM86.2846 65V66H86.3218L86.3589 65.9972L86.2846 65ZM74.3365 65L74.2623 65.9972L74.2994 66H74.3365V65ZM68.3625 48.0494L67.3958 47.7934L67.3625 47.9192V48.0494H68.3625ZM72.944 62.8765L72.8316 63.8702L72.8876 63.8765H72.944V62.8765ZM86.8694 62.8765V63.8765H86.942L87.0138 63.8661L86.8694 62.8765ZM90.2533 47.8765H91.2533V47.8023L91.2424 47.729L90.2533 47.8765ZM73.1389 44.7037V43.7037H73.0601L72.9822 43.7161L73.1389 44.7037ZM90.8521 47.1728V46.1728H89.8521V47.1728H90.8521ZM90.8521 59.8765L91.8347 60.0625L91.8521 59.9704V59.8765H90.8521ZM70.5488 62.7037L71.1075 61.8744L70.8542 61.7037H70.5488V62.7037ZM70.3538 62.7037V61.7037H69.3538V62.7037H70.3538ZM73.5427 64.1111L73.349 65.0922L73.445 65.1111H73.5427V64.1111ZM86.8694 64.1111V65.1111H86.9172L86.9647 65.1066L86.8694 64.1111ZM91.256 48.0494H92.256V47.9395L92.2321 47.8323L91.256 48.0494ZM91.061 47.1728L92.0372 46.9557L91.863 46.1728H91.061V47.1728ZM71.3982 47.5679H70.3982V48.5679H71.3982V47.5679ZM71.3982 46.716V45.716H70.3982V46.716H71.3982ZM78.542 46.716H79.542V45.716H78.542V46.716ZM78.542 47.5679V48.5679H79.542V47.5679H78.542ZM75.5202 47.5679V46.5679H74.5202V47.5679H75.5202ZM75.5202 54.716V55.716H76.5202V54.716H75.5202ZM74.434 54.716H73.434V55.716H74.434V54.716ZM74.434 47.5679H75.434V46.5679H74.434V47.5679ZM235.436 44L235.637 43.0205L235.537 43H235.436V44ZM234.043 65V66H234.081L234.118 65.9972L234.043 65ZM101.779 65L101.705 65.9972L101.742 66H101.779V65ZM95.805 48.0494L94.8383 47.7934L94.805 47.9192V48.0494H95.805ZM100.386 62.8765L100.274 63.8702L100.33 63.8765H100.386V62.8765ZM234.628 62.8765V63.8765H234.701L234.773 63.8661L234.628 62.8765ZM238.012 47.8765H239.012V47.8023L239.001 47.729L238.012 47.8765ZM100.581 44.7037V43.7037H100.503L100.425 43.7161L100.581 44.7037ZM238.611 47.1728V46.1728H237.611V47.1728H238.611ZM238.611 59.8765L239.593 60.0625L239.611 59.9704V59.8765H238.611ZM97.9913 62.7037L98.55 61.8744L98.2967 61.7037H97.9913V62.7037ZM97.7963 62.7037V61.7037H96.7963V62.7037H97.7963ZM100.985 64.1111L100.792 65.0922L100.887 65.1111H100.985V64.1111ZM234.628 64.1111V65.1111H234.676L234.723 65.1066L234.628 64.1111ZM239.015 48.0494H240.015V47.9395L239.991 47.8323L239.015 48.0494ZM238.82 47.1728L239.796 46.9557L239.622 46.1728H238.82V47.1728ZM19.5815 45H34.3147V43H19.5815V45ZM34.1134 44.9795C35.5475 45.2741 36.4984 45.7168 37.0769 46.2298C37.6194 46.7107 37.8822 47.2921 37.8822 48.0494H39.8822C39.8822 46.7326 39.3837 45.6021 38.4037 44.7332C37.4597 43.8963 36.1268 43.3514 34.5159 43.0205L34.1134 44.9795ZM37.8822 48.0494V60.7654H39.8822V48.0494H37.8822ZM37.8822 60.7654C37.8822 61.7191 37.5311 62.3938 36.813 62.9039C36.0347 63.4569 34.7563 63.8604 32.8477 64.0028L32.9965 65.9972C35.0613 65.8433 36.763 65.3929 37.9714 64.5343C39.24 63.633 39.8822 62.3385 39.8822 60.7654H37.8822ZM32.9221 64H20.974V66H32.9221V64ZM21.0482 64.0028C19.1348 63.8604 17.8526 63.4568 17.0718 62.9033C16.3515 62.3927 16 61.7181 16 60.7654H14C14 62.3395 14.6442 63.634 15.9152 64.535C17.1258 65.393 18.8306 65.8433 20.8998 65.9972L21.0482 64.0028ZM16 60.7654V48.0494H14V60.7654H16ZM15.9667 48.3054C16.2917 47.0779 16.7736 46.2656 17.3438 45.7616C17.8977 45.272 18.6173 45 19.5815 45V43C18.2062 43 16.9925 43.4029 16.0192 44.2631C15.0622 45.1089 14.4231 46.3213 14.0333 47.7934L15.9667 48.3054ZM15.1976 47.3457V60.0494H17.1976V47.3457H15.1976ZM15.1976 60.0494C15.1976 61.1241 15.5845 62.0625 16.4024 62.7458C17.1779 63.3937 18.2447 63.7317 19.4691 63.8702L19.6939 61.8829C18.6623 61.7662 18.0372 61.5055 17.6847 61.211C17.3747 60.9519 17.1976 60.6042 17.1976 60.0494H15.1976ZM19.5815 63.8765H33.507V61.8765H19.5815V63.8765ZM33.6514 63.8661C34.8799 63.6868 35.9416 63.3076 36.7083 62.6279C37.511 61.9163 37.8909 60.9634 37.8909 59.8765H35.8909C35.8909 60.4605 35.7068 60.843 35.3815 61.1314C35.0202 61.4517 34.39 61.7371 33.3626 61.887L33.6514 63.8661ZM37.8909 59.8765V47.8765H35.8909V59.8765H37.8909ZM37.8799 47.729C37.6993 46.5188 37.2471 45.4794 36.4228 44.7486C35.5943 44.0141 34.5168 43.7037 33.312 43.7037V45.7037C34.1774 45.7037 34.7316 45.9221 35.096 46.2452C35.4647 46.572 35.7668 47.1191 35.9018 48.0241L37.8799 47.729ZM33.312 43.7037H19.7764V45.7037H33.312V43.7037ZM19.6197 43.7161C18.3569 43.9164 17.2805 44.2663 16.4984 44.8436C15.6681 45.4566 15.1976 46.311 15.1976 47.3457H17.1976C17.1976 46.9976 17.3236 46.7204 17.6862 46.4527C18.0971 46.1494 18.8101 45.8696 19.9332 45.6913L19.6197 43.7161ZM36.4897 47.1728V59.8765H38.4897V47.1728H36.4897ZM36.5071 59.6905C36.3112 60.7255 35.9448 61.3788 35.4964 61.7764C35.0573 62.1657 34.4296 62.4074 33.507 62.4074V64.4074C34.7939 64.4074 35.9347 64.0607 36.8232 63.273C37.7023 62.4936 38.2225 61.3815 38.4722 60.0625L36.5071 59.6905ZM33.507 62.4074H19.3726V64.4074H33.507V62.4074ZM19.3726 62.4074C18.8308 62.4074 18.2939 62.2442 17.7451 61.8744L16.6275 63.533C17.4712 64.1015 18.3919 64.4074 19.3726 64.4074V62.4074ZM17.1863 61.7037H16.9913V63.7037H17.1863V61.7037ZM15.9913 62.7037C15.9913 63.2078 16.257 63.5808 16.51 63.8159C16.7584 64.0467 17.0709 64.2207 17.3848 64.3593C18.0185 64.639 18.902 64.878 19.9866 65.0922L20.374 63.1301C19.3326 62.9244 18.6216 62.719 18.1923 62.5296C17.9748 62.4336 17.8887 62.3669 17.8713 62.3507C17.8586 62.3389 17.9913 62.4589 17.9913 62.7037H15.9913ZM20.1803 65.1111H33.507V63.1111H20.1803V65.1111ZM33.6022 65.1066C35.1346 64.9599 36.4273 64.6155 37.3614 63.9767C38.3553 63.2969 38.8935 62.3129 38.8935 61.1111H36.8935C36.8935 61.6294 36.7006 62.0056 36.2324 62.3258C35.7042 62.687 34.8037 62.9825 33.4117 63.1157L33.6022 65.1066ZM38.8935 61.1111V48.0494H36.8935V61.1111H38.8935ZM38.8696 47.8323L38.6747 46.9557L36.7224 47.3899L36.9174 48.2665L38.8696 47.8323ZM37.6985 46.1728H37.4897V48.1728H37.6985V46.1728ZM19.1472 54.6049V46.6914H17.1472V54.6049H19.1472ZM18.1472 47.6914H19.3726V45.6914H18.1472V47.6914ZM18.5618 47.2767L22.7951 53.1409L24.4168 51.9702L20.1834 46.106L18.5618 47.2767ZM22.8026 53.151C22.9833 53.3948 23.1029 53.601 23.1769 53.7705L25.0098 52.9702C24.861 52.6294 24.6556 52.2924 24.4093 51.9601L22.8026 53.151ZM23.1955 53.8107L23.3348 54.0946L25.1304 53.214L24.9912 52.9301L23.1955 53.8107ZM25.2242 53.5253L25.1407 52.8833L23.1574 53.1414L23.241 53.7834L25.2242 53.5253ZM25.1464 52.939L25.1046 52.3711L23.11 52.5178L23.1517 53.0857L25.1464 52.939ZM25.1073 52.4444V46.6914H23.1073V52.4444H25.1073ZM24.1073 47.6914H25.1795V45.6914H24.1073V47.6914ZM24.1795 46.6914V54.6049H26.1795V46.6914H24.1795ZM25.1795 53.6049H23.9262V55.6049H25.1795V53.6049ZM24.7391 54.0224L20.1297 47.5903L18.5041 48.7553L23.1134 55.1874L24.7391 54.0224ZM20.2099 47.7228L19.9175 47.1425L18.1315 48.0427L18.4239 48.6229L20.2099 47.7228ZM18.0392 47.7636L18.2341 48.887L20.2047 48.5451L20.0097 47.4216L18.0392 47.7636ZM18.2194 48.716V54.6049H20.2194V48.716H18.2194ZM19.2194 53.6049H18.1472V55.6049H19.2194V53.6049ZM46.2627 45H60.9959V43H46.2627V45ZM60.7947 44.9795C62.2288 45.2741 63.1796 45.7168 63.7582 46.2298C64.3007 46.7107 64.5634 47.2921 64.5634 48.0494H66.5634C66.5634 46.7326 66.065 45.6021 65.0849 44.7332C64.141 43.8963 62.808 43.3514 61.1971 43.0205L60.7947 44.9795ZM64.5634 48.0494V60.7654H66.5634V48.0494H64.5634ZM64.5634 60.7654C64.5634 61.7191 64.2123 62.3938 63.4942 62.9039C62.7159 63.4569 61.4375 63.8604 59.529 64.0028L59.6777 65.9972C61.7426 65.8433 63.4442 65.3929 64.6526 64.5343C65.9212 63.633 66.5634 62.3385 66.5634 60.7654H64.5634ZM59.6033 64H47.6553V66H59.6033V64ZM47.7295 64.0028C45.816 63.8604 44.5338 63.4568 43.753 62.9033C43.0327 62.3927 42.6812 61.7181 42.6812 60.7654H40.6812C40.6812 62.3395 41.3254 63.634 42.5965 64.535C43.807 65.393 45.5119 65.8433 47.5811 65.9972L47.7295 64.0028ZM42.6812 60.7654V48.0494H40.6812V60.7654H42.6812ZM42.6479 48.3054C42.973 47.0779 43.4548 46.2656 44.025 45.7616C44.5789 45.272 45.2985 45 46.2627 45V43C44.8874 43 43.6737 43.4029 42.7005 44.2631C41.7435 45.1089 41.1044 46.3213 40.7145 47.7934L42.6479 48.3054ZM41.8788 47.3457V60.0494H43.8788V47.3457H41.8788ZM41.8788 60.0494C41.8788 61.1241 42.2657 62.0625 43.0836 62.7458C43.8591 63.3937 44.926 63.7317 46.1503 63.8702L46.3751 61.8829C45.3436 61.7662 44.7184 61.5055 44.366 61.211C44.0559 60.9519 43.8788 60.6042 43.8788 60.0494H41.8788ZM46.2627 63.8765H60.1882V61.8765H46.2627V63.8765ZM60.3326 63.8661C61.5611 63.6868 62.6229 63.3076 63.3895 62.6279C64.1922 61.9163 64.5721 60.9634 64.5721 59.8765H62.5721C62.5721 60.4605 62.388 60.843 62.0627 61.1314C61.7014 61.4517 61.0712 61.7371 60.0438 61.887L60.3326 63.8661ZM64.5721 59.8765V47.8765H62.5721V59.8765H64.5721ZM64.5611 47.729C64.3806 46.5188 63.9283 45.4794 63.104 44.7486C62.2755 44.0141 61.1981 43.7037 59.9932 43.7037V45.7037C60.8587 45.7037 61.4128 45.9221 61.7773 46.2452C62.1459 46.572 62.448 47.1191 62.5831 48.0241L64.5611 47.729ZM59.9932 43.7037H46.4577V45.7037H59.9932V43.7037ZM46.301 43.7161C45.0381 43.9164 43.9617 44.2663 43.1796 44.8436C42.3493 45.4566 41.8788 46.311 41.8788 47.3457H43.8788C43.8788 46.9976 44.0048 46.7204 44.3675 46.4527C44.7783 46.1494 45.4913 45.8696 46.6144 45.6913L46.301 43.7161ZM63.1709 47.1728V59.8765H65.1709V47.1728H63.1709ZM63.1883 59.6905C62.9924 60.7255 62.6261 61.3788 62.1776 61.7764C61.7386 62.1657 61.1108 62.4074 60.1882 62.4074V64.4074C61.4751 64.4074 62.6159 64.0607 63.5044 63.273C64.3835 62.4936 64.9038 61.3815 65.1534 60.0625L63.1883 59.6905ZM60.1882 62.4074H46.0538V64.4074H60.1882V62.4074ZM46.0538 62.4074C45.512 62.4074 44.9752 62.2442 44.4263 61.8744L43.3088 63.533C44.1524 64.1015 45.0732 64.4074 46.0538 64.4074V62.4074ZM43.8675 61.7037H43.6726V63.7037H43.8675V61.7037ZM42.6726 62.7037C42.6726 63.2078 42.9382 63.5808 43.1912 63.8159C43.4396 64.0467 43.7521 64.2207 44.066 64.3593C44.6997 64.639 45.5832 64.878 46.6678 65.0922L47.0552 63.1301C46.0138 62.9244 45.3029 62.719 44.8736 62.5296C44.656 62.4336 44.5699 62.3669 44.5526 62.3507C44.5398 62.3389 44.6726 62.4589 44.6726 62.7037H42.6726ZM46.8615 65.1111H60.1882V63.1111H46.8615V65.1111ZM60.2835 65.1066C61.8158 64.9599 63.1086 64.6155 64.0426 63.9767C65.0365 63.2969 65.5747 62.3129 65.5747 61.1111H63.5747C63.5747 61.6294 63.3819 62.0056 62.9136 62.3258C62.3855 62.687 61.485 62.9825 60.0929 63.1157L60.2835 65.1066ZM65.5747 61.1111V48.0494H63.5747V61.1111H65.5747ZM65.5509 47.8323L65.3559 46.9557L63.4036 47.3899L63.5986 48.2665L65.5509 47.8323ZM64.3798 46.1728H64.1709V48.1728H64.3798V46.1728ZM45.7727 50.5062C45.7727 49.4894 46.0572 48.766 46.5495 48.2364L45.0847 46.8747C44.1845 47.8431 43.7727 49.0867 43.7727 50.5062H45.7727ZM46.5554 48.2301C47.0791 47.6568 47.8359 47.321 48.9643 47.321V45.321C47.4004 45.321 46.0591 45.8082 45.0788 46.881L46.5554 48.2301ZM48.9643 47.321C49.2466 47.321 49.4851 47.3358 49.6835 47.3619L49.9439 45.3789C49.6411 45.3391 49.3133 45.321 48.9643 45.321V47.321ZM49.6687 47.3598C50.5667 47.4914 51.1787 47.8589 51.6031 48.4262L53.2046 47.2281C52.4221 46.1822 51.3074 45.5786 49.9587 45.3809L49.6687 47.3598ZM51.6013 48.4238C51.99 48.9466 52.2115 49.6202 52.2115 50.5062H54.2115C54.2115 49.2687 53.8946 48.1563 53.2064 47.2305L51.6013 48.4238ZM52.2115 50.5062C52.2115 51.5501 51.9211 52.2818 51.4253 52.8081L52.8811 54.1795C53.7964 53.2079 54.2115 51.9478 54.2115 50.5062H52.2115ZM51.4253 52.8082C50.909 53.3563 50.1346 53.6914 48.9503 53.6914V55.6914C50.5326 55.6914 51.8934 55.2281 52.8811 54.1795L51.4253 52.8082ZM48.9503 53.6914C47.8573 53.6914 47.1037 53.36 46.5652 52.7778L45.0969 54.1358C46.0809 55.1997 47.4068 55.6914 48.9503 55.6914V53.6914ZM46.5663 52.779C46.0571 52.2266 45.7727 51.4981 45.7727 50.5062H43.7727C43.7727 51.9175 44.1938 53.1561 45.0957 54.1346L46.5663 52.779ZM44.9285 50.5062C44.9285 50.776 44.9518 51.0653 44.9934 51.37L46.975 51.0991C46.9424 50.8606 46.9285 50.6643 46.9285 50.5062H44.9285ZM44.9975 51.3969C45.1538 52.3472 45.5258 53.1812 46.1646 53.8268L47.5863 52.4201C47.2967 52.1274 47.0746 51.7022 46.9709 51.0723L44.9975 51.3969ZM46.1693 53.8315C46.9073 54.5675 47.8642 54.9012 48.9364 54.9012V52.9012C48.3004 52.9012 47.8834 52.7164 47.5816 52.4154L46.1693 53.8315ZM48.9364 54.9012C49.1861 54.9012 49.4504 54.8803 49.7261 54.8427L49.4558 52.861C49.2487 52.8893 49.0767 52.9012 48.9364 52.9012V54.9012ZM49.74 54.8407C50.609 54.7097 51.3721 54.351 51.9525 53.7205C52.5239 53.0996 52.8461 52.2939 52.9879 51.3895L51.0121 51.0796C50.9126 51.7143 50.7125 52.1144 50.4809 52.366C50.2583 52.6078 49.9375 52.7883 49.4418 52.863L49.74 54.8407ZM52.9857 51.403C53.0391 51.0907 53.0696 50.79 53.0696 50.5062H51.0696C51.0696 50.6503 51.0538 50.8352 51.0143 51.0661L52.9857 51.403ZM53.0696 50.5062C53.0696 50.2287 53.0387 49.9315 52.9857 49.6217L51.0143 49.9586C51.0542 50.1919 51.0696 50.3721 51.0696 50.5062H53.0696ZM52.9888 49.641C52.8522 48.7349 52.5327 47.9269 51.961 47.3029C51.381 46.6698 50.6163 46.3081 49.7448 46.1724L49.437 48.1486C49.9395 48.2268 50.2633 48.4105 50.4863 48.6539C50.7177 48.9065 50.9157 49.3062 51.0112 49.9392L52.9888 49.641ZM49.7314 46.1704C49.4594 46.1318 49.1939 46.1111 48.9364 46.1111V48.1111C49.0874 48.1111 49.2583 48.1233 49.4505 48.1506L49.7314 46.1704ZM48.9364 46.1111C47.865 46.1111 46.9118 46.4541 46.17 47.1925L47.5809 48.61C47.8975 48.2949 48.3182 48.1111 48.9364 48.1111V46.1111ZM46.1716 47.1909C45.5172 47.8393 45.1421 48.6803 44.9957 49.6391L46.9727 49.9411C47.0677 49.3197 47.2868 48.9014 47.5793 48.6116L46.1716 47.1909ZM44.9929 49.6586C44.9522 49.9652 44.9285 50.2504 44.9285 50.5062H46.9285C46.9285 50.3668 46.9419 50.1747 46.9755 49.9217L44.9929 49.6586ZM72.944 45H87.6771V43H72.944V45ZM87.4759 44.9795C88.91 45.2741 89.8609 45.7168 90.4394 46.2298C90.9819 46.7107 91.2447 47.2921 91.2447 48.0494H93.2447C93.2447 46.7326 92.7462 45.6021 91.7662 44.7332C90.8222 43.8963 89.4893 43.3514 87.8783 43.0205L87.4759 44.9795ZM91.2447 48.0494V60.7654H93.2447V48.0494H91.2447ZM91.2447 60.7654C91.2447 61.7191 90.8935 62.3938 90.1755 62.9039C89.3971 63.4569 88.1187 63.8604 86.2102 64.0028L86.3589 65.9972C88.4238 65.8433 90.1255 65.3929 91.3338 64.5343C92.6025 63.633 93.2447 62.3385 93.2447 60.7654H91.2447ZM86.2846 64H74.3365V66H86.2846V64ZM74.4107 64.0028C72.4972 63.8604 71.2151 63.4568 70.4343 62.9033C69.714 62.3927 69.3625 61.7181 69.3625 60.7654H67.3625C67.3625 62.3395 68.0067 63.634 69.2777 64.535C70.4882 65.393 72.1931 65.8433 74.2623 65.9972L74.4107 64.0028ZM69.3625 60.7654V48.0494H67.3625V60.7654H69.3625ZM69.3292 48.3054C69.6542 47.0779 70.1361 46.2656 70.7062 45.7616C71.2602 45.272 71.9797 45 72.944 45V43C71.5687 43 70.3549 43.4029 69.3817 44.2631C68.4247 45.1089 67.7856 46.3213 67.3958 47.7934L69.3292 48.3054ZM68.5601 47.3457V60.0494H70.5601V47.3457H68.5601ZM68.5601 60.0494C68.5601 61.1241 68.947 62.0625 69.7649 62.7458C70.5403 63.3937 71.6072 63.7317 72.8316 63.8702L73.0563 61.8829C72.0248 61.7662 71.3997 61.5055 71.0472 61.211C70.7371 60.9519 70.5601 60.6042 70.5601 60.0494H68.5601ZM72.944 63.8765H86.8694V61.8765H72.944V63.8765ZM87.0138 63.8661C88.2424 63.6868 89.3041 63.3076 90.0707 62.6279C90.8734 61.9163 91.2533 60.9634 91.2533 59.8765H89.2533C89.2533 60.4605 89.0692 60.843 88.744 61.1314C88.3826 61.4517 87.7524 61.7371 86.725 61.887L87.0138 63.8661ZM91.2533 59.8765V47.8765H89.2533V59.8765H91.2533ZM91.2424 47.729C91.0618 46.5188 90.6096 45.4794 89.7853 44.7486C88.9567 44.0141 87.8793 43.7037 86.6745 43.7037V45.7037C87.5399 45.7037 88.0941 45.9221 88.4585 46.2452C88.8272 46.572 89.1292 47.1191 89.2643 48.0241L91.2424 47.729ZM86.6745 43.7037H73.1389V45.7037H86.6745V43.7037ZM72.9822 43.7161C71.7194 43.9164 70.6429 44.2663 69.8609 44.8436C69.0306 45.4566 68.5601 46.311 68.5601 47.3457H70.5601C70.5601 46.9976 70.686 46.7204 71.0487 46.4527C71.4596 46.1494 72.1725 45.8696 73.2956 45.6913L72.9822 43.7161ZM89.8521 47.1728V59.8765H91.8521V47.1728H89.8521ZM89.8696 59.6905C89.6736 60.7255 89.3073 61.3788 88.8589 61.7764C88.4198 62.1657 87.792 62.4074 86.8694 62.4074V64.4074C88.1563 64.4074 89.2971 64.0607 90.1856 63.273C91.0647 62.4936 91.585 61.3815 91.8347 60.0625L89.8696 59.6905ZM86.8694 62.4074H72.7351V64.4074H86.8694V62.4074ZM72.7351 62.4074C72.1932 62.4074 71.6564 62.2442 71.1075 61.8744L69.99 63.533C70.8337 64.1015 71.7544 64.4074 72.7351 64.4074V62.4074ZM70.5488 61.7037H70.3538V63.7037H70.5488V61.7037ZM69.3538 62.7037C69.3538 63.2078 69.6194 63.5808 69.8724 63.8159C70.1209 64.0467 70.4333 64.2207 70.7473 64.3593C71.381 64.639 72.2645 64.878 73.349 65.0922L73.7365 63.1301C72.6951 62.9244 71.9841 62.719 71.5548 62.5296C71.3373 62.4336 71.2511 62.3669 71.2338 62.3507C71.2211 62.3389 71.3538 62.4589 71.3538 62.7037H69.3538ZM73.5427 65.1111H86.8694V63.1111H73.5427V65.1111ZM86.9647 65.1066C88.497 64.9599 89.7898 64.6155 90.7239 63.9767C91.7178 63.2969 92.256 62.3129 92.256 61.1111H90.256C90.256 61.6294 90.0631 62.0056 89.5948 62.3258C89.0667 62.687 88.1662 62.9825 86.7742 63.1157L86.9647 65.1066ZM92.256 61.1111V48.0494H90.256V61.1111H92.256ZM92.2321 47.8323L92.0372 46.9557L90.0849 47.3899L90.2798 48.2665L92.2321 47.8323ZM91.061 46.1728H90.8521V48.1728H91.061V46.1728ZM72.3982 47.5679V46.716H70.3982V47.5679H72.3982ZM71.3982 47.716H78.542V45.716H71.3982V47.716ZM77.542 46.716V47.5679H79.542V46.716H77.542ZM78.542 46.5679H75.5202V48.5679H78.542V46.5679ZM74.5202 47.5679V54.716H76.5202V47.5679H74.5202ZM75.5202 53.716H74.434V55.716H75.5202V53.716ZM75.434 54.716V47.5679H73.434V54.716H75.434ZM74.434 46.5679H71.3982V48.5679H74.434V46.5679ZM100.386 45H235.436V43H100.386V45ZM235.235 44.9795C236.669 45.2741 237.62 45.7168 238.198 46.2298C238.741 46.7107 239.003 47.2921 239.003 48.0494H241.003C241.003 46.7326 240.505 45.6021 239.525 44.7332C238.581 43.8963 237.248 43.3514 235.637 43.0205L235.235 44.9795ZM239.003 48.0494V60.7654H241.003V48.0494H239.003ZM239.003 60.7654C239.003 61.7191 238.652 62.3938 237.934 62.9039C237.156 63.4569 235.877 63.8604 233.969 64.0028L234.118 65.9972C236.183 65.8433 237.884 65.3929 239.093 64.5343C240.361 63.633 241.003 62.3385 241.003 60.7654H239.003ZM234.043 64H101.779V66H234.043V64ZM101.853 64.0028C99.9397 63.8604 98.6575 63.4568 97.8768 62.9033C97.1564 62.3927 96.805 61.7181 96.805 60.7654H94.805C94.805 62.3395 95.4491 63.634 96.7202 64.535C97.9307 65.393 99.6356 65.8433 101.705 65.9972L101.853 64.0028ZM96.805 60.7654V48.0494H94.805V60.7654H96.805ZM96.7716 48.3054C97.0967 47.0779 97.5786 46.2656 98.1487 45.7616C98.7026 45.272 99.4222 45 100.386 45V43C99.0112 43 97.7974 43.4029 96.8242 44.2631C95.8672 45.1089 95.2281 46.3213 94.8383 47.7934L96.7716 48.3054ZM96.0026 47.3457V60.0494H98.0026V47.3457H96.0026ZM96.0026 60.0494C96.0026 61.1241 96.3895 62.0625 97.2074 62.7458C97.9828 63.3937 99.0497 63.7317 100.274 63.8702L100.499 61.8829C99.4673 61.7662 98.8422 61.5055 98.4897 61.211C98.1796 60.9519 98.0026 60.6042 98.0026 60.0494H96.0026ZM100.386 63.8765H234.628V61.8765H100.386V63.8765ZM234.773 63.8661C236.001 63.6868 237.063 63.3076 237.829 62.6279C238.632 61.9163 239.012 60.9634 239.012 59.8765H237.012C237.012 60.4605 236.828 60.843 236.503 61.1314C236.141 61.4517 235.511 61.7371 234.484 61.887L234.773 63.8661ZM239.012 59.8765V47.8765H237.012V59.8765H239.012ZM239.001 47.729C238.82 46.5188 238.368 45.4794 237.544 44.7486C236.715 44.0141 235.638 43.7037 234.433 43.7037V45.7037C235.299 45.7037 235.853 45.9221 236.217 46.2452C236.586 46.572 236.888 47.1191 237.023 48.0241L239.001 47.729ZM234.433 43.7037H100.581V45.7037H234.433V43.7037ZM100.425 43.7161C99.1619 43.9164 98.0854 44.2663 97.3033 44.8436C96.473 45.4566 96.0026 46.311 96.0026 47.3457H98.0026C98.0026 46.9976 98.1285 46.7204 98.4912 46.4527C98.902 46.1494 99.615 45.8696 100.738 45.6913L100.425 43.7161ZM237.611 47.1728V59.8765H239.611V47.1728H237.611ZM237.628 59.6905C237.432 60.7255 237.066 61.3788 236.618 61.7764C236.179 62.1657 235.551 62.4074 234.628 62.4074V64.4074C235.915 64.4074 237.056 64.0607 237.944 63.273C238.823 62.4936 239.344 61.3815 239.593 60.0625L237.628 59.6905ZM234.628 62.4074H100.178V64.4074H234.628V62.4074ZM100.178 62.4074C99.6357 62.4074 99.0989 62.2442 98.55 61.8744L97.4325 63.533C98.2762 64.1015 99.1969 64.4074 100.178 64.4074V62.4074ZM97.9913 61.7037H97.7963V63.7037H97.9913V61.7037ZM96.7963 62.7037C96.7963 63.2078 97.0619 63.5808 97.3149 63.8159C97.5634 64.0467 97.8758 64.2207 98.1898 64.3593C98.8235 64.639 99.707 64.878 100.792 65.0922L101.179 63.1301C100.138 62.9244 99.4266 62.719 98.9973 62.5296C98.7798 62.4336 98.6936 62.3669 98.6763 62.3507C98.6636 62.3389 98.7963 62.4589 98.7963 62.7037H96.7963ZM100.985 65.1111H234.628V63.1111H100.985V65.1111ZM234.723 65.1066C236.256 64.9599 237.548 64.6155 238.483 63.9767C239.476 63.2969 240.015 62.3129 240.015 61.1111H238.015C238.015 61.6294 237.822 62.0056 237.354 62.3258C236.825 62.687 235.925 62.9825 234.533 63.1157L234.723 65.1066ZM240.015 61.1111V48.0494H238.015V61.1111H240.015ZM239.991 47.8323L239.796 46.9557L237.844 47.3899L238.039 48.2665L239.991 47.8323ZM238.82 46.1728H238.611V48.1728H238.82V46.1728Z" fill="#53FCFF" mask="url(#path-1-outside-1_226_8)"/>
</svg>
